<svg width="216" height="55" viewBox="0 0 216 55" fill="none" xmlns="http://www.w3.org/2000/svg">
<path d="M34.1391 3.09546C34.7172 3.09546 35.0604 3.31225 35.1688 3.74582L35.223 3.96261C34.1752 3.96261 33.272 4.63103 32.5132 5.96788C31.7906 7.30473 31.2486 9.07515 30.8873 11.2791C30.526 13.447 30.1286 15.9401 29.695 18.7583C29.2614 21.5404 28.8459 24.3947 28.4485 27.3213C28.0871 30.248 27.491 33.1204 26.66 35.9386C25.829 38.7207 24.8534 41.2137 23.7334 43.4177C22.6494 45.5856 21.1319 47.3379 19.1808 48.6748C17.2298 50.0116 14.9174 50.6801 12.2437 50.6801C9.56998 50.6801 7.36598 49.8852 5.63169 48.2954C3.93353 46.7057 2.95799 44.7726 2.70507 42.4964C2.63281 41.7376 2.59668 40.7982 2.59668 39.6782C2.59668 38.522 2.7954 37.0045 3.19284 35.1257C3.62642 33.2107 4.62002 31.4583 6.17366 29.8686C7.76342 28.2788 9.56998 27.4839 11.5933 27.4839C12.1353 27.4839 12.5508 27.6465 12.8398 27.9717C13.165 28.2969 13.3818 28.7846 13.4902 29.435C10.2384 29.435 7.67309 31.0428 5.79428 34.2585C4.60195 36.3541 4.00579 38.4497 4.00579 40.5453C4.00579 41.6654 4.18645 42.8035 4.54776 43.9597C5.55943 47.1754 7.92601 48.7832 11.6475 48.7832C13.6709 48.7832 15.4413 48.1148 16.9588 46.7779C18.5124 45.4772 19.7589 43.7248 20.6983 41.5209C21.6378 39.2807 22.4507 36.8057 23.1372 34.0959C23.8237 31.35 24.4198 28.4956 24.9257 25.5329C25.4315 22.5701 25.9193 19.7699 26.389 17.1324C27.5813 10.8456 29.0446 6.72663 30.7789 4.77555C27.9607 5.75109 25.3954 7.30473 23.083 9.43646C20.8067 11.5321 19.6686 13.8264 19.6686 16.3194C19.6686 17.4395 20.048 17.9995 20.8067 17.9995C20.7345 18.5054 20.3551 18.7583 19.6686 18.7583C19.0182 18.7583 18.4221 18.4873 17.8801 17.9453C17.3743 17.4034 17.1214 16.6265 17.1214 15.6149C17.1214 13.4831 18.1692 11.4237 20.2648 9.43646C22.3965 7.41313 24.7631 5.85949 27.3645 4.77555C30.0021 3.65549 32.2603 3.09546 34.1391 3.09546Z" fill="#D11117"/>
<path d="M38.2124 35.6134C42.8733 24.0876 47.4078 18.3247 51.8158 18.3247C53.6585 18.3247 54.5798 19.2099 54.5798 20.9803C54.3269 21.8114 54.0017 22.9134 53.6043 24.2863C53.2068 25.6232 52.6649 28.044 51.9784 31.5487C51.328 35.0534 51.0028 38.1245 51.0028 40.7621C51.0028 44.592 51.5629 46.5069 52.6829 46.5069C53.1165 46.5069 53.532 46.3263 53.9294 45.965C54.3269 45.6398 54.5979 45.4772 54.7424 45.4772C55.2482 45.4772 55.2482 45.8746 54.7424 46.6695C54.5617 46.9224 54.2185 47.2657 53.7127 47.6993C53.2429 48.1328 52.7552 48.3496 52.2493 48.3496C50.8764 48.3496 49.7924 47.356 48.9975 45.3688C48.2388 43.4177 47.8594 40.8705 47.8594 37.7271C47.8594 32.741 48.6362 27.2671 50.1899 21.3055C50.3344 20.8358 50.1899 20.601 49.7563 20.601C49.4673 20.601 49.1421 20.7455 48.7808 21.0345C47.0465 22.552 45.2218 25.0632 43.3069 28.5679C41.392 32.0726 39.8925 35.216 38.8086 37.9981C37.7247 40.744 37.1827 42.3519 37.1827 42.8216C37.1827 43.2551 36.9298 43.4719 36.4239 43.4719C35.2677 43.4719 34.6896 42.0448 34.6896 39.1904C34.6896 33.8069 35.2316 28.9292 36.3155 24.5573C37.4356 20.1855 38.7725 17.9995 40.3261 17.9995C40.9764 17.9995 41.3016 18.397 41.3016 19.1919C39.6396 24.5754 38.4473 30.0492 37.7247 35.6134H38.2124Z" fill="#D11117"/>
<path d="M61.5169 20.9261C60.1077 20.9261 59.4032 20.348 59.4032 19.1919C59.4032 18.7583 59.5838 18.4873 59.9452 18.3789C59.9813 18.3428 60.0355 18.3247 60.1077 18.3247C60.3245 18.5776 60.722 18.7041 61.3001 18.7041C61.9143 18.7041 62.8718 18.6679 64.1725 18.5957C65.8706 14.007 67.4966 11.7127 69.0502 11.7127C69.6644 11.7127 69.9715 12.056 69.9715 12.7425C69.3934 14.1877 68.7431 16.0484 68.0204 18.3247C71.5974 17.9273 73.9279 17.7285 75.0118 17.7285C75.3009 17.7285 75.4454 17.8731 75.4454 18.1621C75.4454 18.7402 75.066 19.0293 74.3073 19.0293C73.9098 19.0293 71.6155 19.4086 67.4243 20.1674C64.5699 29.2002 63.1427 36.5167 63.1427 42.117C63.1427 47.7173 64.2628 50.5175 66.5029 50.5175C67.4062 50.5175 68.2553 50.12 69.0502 49.3252C69.8451 48.5664 70.4051 47.8077 70.7303 47.0489C70.8748 46.6515 71.1819 46.5431 71.6516 46.7237C71.8684 46.796 71.9407 46.9044 71.8684 47.0489C71.6516 47.5186 71.3806 48.0606 71.0555 48.6748C70.7303 49.289 70.098 50.0478 69.1586 50.9511C68.2192 51.8543 67.2617 52.306 66.2862 52.306C61.9866 52.306 59.8368 48.5664 59.8368 41.0873C59.8368 34.7643 61.011 28.0078 63.3595 20.8177C62.8537 20.89 62.2395 20.9261 61.5169 20.9261Z" fill="#D11117"/>
<path d="M88.1982 18.1079C90.9442 18.1079 92.3171 19.7158 92.3171 22.9314C92.3171 24.7741 91.7029 26.7071 90.4745 28.7305C88.3789 32.0906 85.5968 33.7707 82.1282 33.7707C81.5862 33.7707 81.1346 33.6804 80.7733 33.4998C80.412 33.3191 80.141 33.0481 79.9603 32.6868C82.5256 32.6868 84.8741 31.2054 87.0059 28.2427C88.7402 25.858 89.6073 23.6721 89.6073 21.6849C89.6073 20.2035 89.0112 19.4628 87.8188 19.4628C85.4342 19.4628 83.2121 21.3236 81.1526 25.0451C78.9486 29.0918 77.8466 33.2468 77.8466 37.5103C77.8466 41.1234 78.8764 43.2913 80.9359 44.0139C81.3333 44.1584 81.8391 44.2307 82.4534 44.2307C83.0676 44.2307 83.7179 44.0862 84.4044 43.7971C85.0909 43.4719 85.669 43.0926 86.1387 42.659C87.0781 41.7918 87.855 40.8344 88.4692 39.7866C88.6137 39.4975 88.8847 39.353 89.2821 39.353C89.9325 39.353 90.2396 39.4614 90.2035 39.6782C90.0951 40.0756 89.6796 40.744 88.957 41.6834C88.2705 42.6228 87.6201 43.3816 87.0059 43.9597C86.4278 44.5017 85.651 44.9894 84.6754 45.423C83.736 45.8927 82.7785 46.1276 81.803 46.1276C77.9731 46.1276 75.5343 44.321 74.4865 40.7079C74.1613 39.4794 73.9987 38.2149 73.9987 36.9141C73.9987 34.4934 74.5587 31.8558 75.6788 29.0014C77.4492 24.6657 79.8881 21.5404 82.9953 19.6254C84.6935 18.6138 86.4278 18.1079 88.1982 18.1079Z" fill="#D11117"/>
<path d="M112.338 28.8388C110.965 28.8388 110.278 27.3394 110.278 24.3405C110.278 22.6424 110.603 21.0526 111.254 19.5712C108.797 21.703 106.051 25.6774 103.016 31.4945C99.9808 37.2755 98.4633 41.0511 98.4633 42.8216C98.4633 43.2551 98.1742 43.4719 97.5961 43.4719C96.5483 43.4719 96.0244 42.0448 96.0244 39.1904C96.0244 33.8069 96.5664 28.9292 97.6503 24.5573C98.7343 20.1855 100.053 17.9995 101.607 17.9995C102.293 17.9995 102.636 18.397 102.636 19.1919C100.974 24.467 99.7821 29.8686 99.0594 35.3966H99.4388C102.365 28.6401 105.599 23.365 109.14 19.5712C111.163 17.4034 113.006 16.3194 114.668 16.3194C115.029 16.3194 115.318 16.4278 115.535 16.6446C115.788 16.8614 115.915 17.1324 115.915 17.4576C115.662 17.7105 115.355 18.0899 114.993 18.5957C114.632 19.1015 114.144 20.3119 113.53 22.2269C112.916 24.1057 112.609 26.1651 112.609 28.4053C112.609 28.6943 112.518 28.8388 112.338 28.8388Z" fill="#D11117"/>
<path fill-rule="evenodd" clip-rule="evenodd" d="M37.4476 5.69937H35.2228C35.0669 5.69937 34.6367 5.75185 34.0325 6.80952C33.4379 7.91565 32.943 9.47556 32.6013 11.5599L32.6005 11.5644C32.2407 13.7234 31.8444 16.2091 31.4116 19.0221L31.4111 19.0254C30.9799 21.7925 30.5665 24.6322 30.1709 27.5445C29.7979 30.5613 29.1829 33.5234 28.3259 36.4296L28.3242 36.4355C27.4689 39.2985 26.4578 41.8892 25.2843 44.1992C24.0721 46.6217 22.3615 48.6007 20.1625 50.1075C17.8855 51.6676 15.2202 52.4168 12.2434 52.4168C9.19883 52.4168 6.55638 51.4994 4.45767 49.5756L4.44423 49.5633C2.44897 47.6954 1.27782 45.3828 0.978393 42.6879L0.976886 42.6744L0.975593 42.6608C0.89632 41.8284 0.859375 40.83 0.859375 39.6779C0.859375 38.3479 1.08477 36.6963 1.49315 34.7658L1.4957 34.7538L1.49842 34.7418C2.01195 32.4736 3.18334 30.4426 4.93109 28.6542L4.94505 28.6399C6.82091 26.764 9.05582 25.7466 11.5931 25.7466C12.4848 25.7466 13.4098 26.0239 14.1031 26.7788C14.7497 27.4445 15.0628 28.3058 15.2034 29.1491L15.5405 31.1718H13.49C10.9584 31.1718 8.91953 32.3569 7.29887 35.126C6.23623 36.9965 5.74263 38.7961 5.74263 40.545C5.74263 41.4751 5.89219 42.438 6.20496 43.4395C6.61521 44.7426 7.25325 45.5939 8.05739 46.1402C8.87747 46.6973 10.031 47.0458 11.6473 47.0458C13.2481 47.0458 14.6102 46.5314 15.8103 45.4742L15.8267 45.4597L15.8435 45.4457C17.151 44.351 18.247 42.8395 19.0982 40.844C19.9986 38.6962 20.7846 36.3071 21.4524 33.6717C22.1273 30.9717 22.7144 28.1614 23.2132 25.2402C23.7196 22.2739 24.2081 19.4696 24.6786 16.8275L24.682 16.8084C25.2879 13.6136 25.9719 10.9185 26.7436 8.74625C26.7455 8.74112 26.7473 8.736 26.7491 8.73088C25.8895 9.31554 25.06 9.97598 24.2602 10.7133C22.2689 12.5465 21.4225 14.3872 21.4057 16.2621H22.8094L22.5261 18.2449C22.4295 18.9213 22.0844 19.5782 21.4313 20.0136C20.8459 20.4039 20.1921 20.495 19.6684 20.495C18.4758 20.495 17.4567 19.9784 16.6516 19.1733L16.6304 19.1521L16.61 19.1303C15.7088 18.1647 15.3841 16.9036 15.3841 15.6146C15.3841 12.8557 16.7547 10.3708 19.0687 8.17625M24.187 8.47776C25.3591 7.5217 26.5919 6.70449 27.8855 6.02614C27.8882 6.02471 27.891 6.02328 27.8937 6.02185C27.8944 6.02149 27.8951 6.02113 27.8958 6.02076C28.8254 5.53392 29.7864 5.11874 30.7787 4.77524C30.5702 5.00981 30.3656 5.27569 30.1649 5.57293C29.8326 6.06521 29.511 6.64345 29.2001 7.30763C28.1374 9.57807 27.2003 12.8529 26.3888 17.1321C25.9191 19.7696 25.4313 22.5698 24.9254 25.5325C24.4196 28.4953 23.8235 31.3496 23.137 34.0956C22.4505 36.8054 21.6375 39.2804 20.6981 41.5205C19.7587 43.7245 18.5122 45.4769 16.9585 46.7776C15.441 48.1145 13.6706 48.7829 11.6473 48.7829C10.9353 48.7829 10.273 48.724 9.66026 48.6064C8.45763 48.3754 7.44596 47.9178 6.62533 47.2335C6.62142 47.2302 6.61751 47.227 6.61361 47.2237C5.6727 46.4349 4.98401 45.3468 4.54752 43.9594C4.37943 43.4215 4.25044 42.8875 4.16055 42.3574C4.15927 42.3499 4.15799 42.3423 4.15673 42.3348C4.05595 41.7331 4.00556 41.1366 4.00556 40.545C4.00556 40.256 4.0169 39.9669 4.03958 39.6779C4.11435 38.7252 4.31233 37.7725 4.63352 36.8198C4.92139 35.9659 5.30823 35.1121 5.79405 34.2582C7.32491 31.6381 9.31157 30.0854 11.754 29.6001C12.3091 29.4898 12.8877 29.4347 13.49 29.4347C13.3816 28.7843 13.1648 28.2966 12.8396 27.9714C12.7582 27.8799 12.6668 27.8012 12.5654 27.7354C12.3066 27.5676 11.9825 27.4836 11.5931 27.4836C9.56974 27.4836 7.76319 28.2785 6.17342 29.8683C4.61979 31.458 3.62618 33.2104 3.19261 35.1253C3.09891 35.5683 3.01626 35.9911 2.94465 36.3939C2.71252 37.6996 2.59645 38.7942 2.59645 39.6779C2.59645 39.9801 2.59908 40.2691 2.60434 40.545C2.61857 41.2917 2.65207 41.942 2.70484 42.4961C2.77891 43.1627 2.91496 43.7999 3.11299 44.4077C3.11329 44.4086 3.11359 44.4095 3.11389 44.4104C3.59219 45.8767 4.43138 47.1716 5.63146 48.2951C6.67143 49.2484 7.8803 49.9159 9.25807 50.2976C10.1779 50.5524 11.173 50.6798 12.2434 50.6798C14.9171 50.6798 17.2295 50.0113 19.1806 48.6745C21.1317 47.3376 22.6492 45.5853 23.7331 43.4174C24.8532 41.2134 25.8287 38.7204 26.6597 35.9383C27.4908 33.1201 28.0869 30.2476 28.4482 27.321C28.8457 24.3944 29.2612 21.5401 29.6947 18.758C30.1283 15.9397 30.5258 13.4467 30.8871 11.2788C31.2484 9.07484 31.7904 7.30442 32.513 5.96757C32.7601 5.53218 33.0225 5.16767 33.3003 4.87408C33.4223 4.74511 33.5473 4.62985 33.6752 4.52824C33.8178 4.41501 33.9641 4.31875 34.114 4.2395C34.1223 4.23513 34.1306 4.2308 34.1389 4.22653C34.4811 4.05038 34.8424 3.9623 35.2228 3.9623L35.1686 3.74551C35.0894 3.42856 34.8846 3.22746 34.5544 3.1422C34.4329 3.11083 34.2944 3.09515 34.1389 3.09515C33.6318 3.09515 33.0971 3.13594 32.5348 3.21753C31.863 3.31499 31.1518 3.47066 30.4011 3.68456C30.1928 3.74391 29.9815 3.80775 29.7671 3.87607C29.5416 3.94794 29.3127 4.02476 29.0805 4.10655C28.5275 4.30132 27.9554 4.52422 27.3643 4.77524C25.881 5.39331 24.474 6.16408 23.1433 7.08757C22.1403 7.78367 21.1808 8.56653 20.2645 9.43615C18.1689 11.4234 17.1211 13.4828 17.1211 15.6146C17.1211 16.6262 17.3741 17.4031 17.8799 17.945C18.0485 18.1137 18.2224 18.2561 18.4016 18.3723C18.7981 18.6294 19.2204 18.758 19.6684 18.758C20.3549 18.758 20.7342 18.5051 20.8065 17.9992C20.6726 17.9992 20.5505 17.9818 20.4403 17.9469C20.0732 17.8308 19.8371 17.5214 19.7318 17.0188C19.7318 17.0187 19.7318 17.0189 19.7318 17.0188C19.6896 16.8169 19.6684 16.5834 19.6684 16.3191C19.6684 13.8261 20.8065 11.5318 23.0828 9.43615C23.4447 9.10253 23.8128 8.78306 24.187 8.47776ZM35.0206 1.46869C34.7115 1.38532 34.4088 1.35808 34.1389 1.35808C31.9386 1.35808 29.4393 2.00741 26.6906 3.17411C23.8879 4.34271 21.3456 6.01523 19.0687 8.17625M35.0206 1.46869L36.4959 0.958008L35.7573 1.78895C35.7573 1.78899 35.7572 1.78892 35.7573 1.78895C36.3464 2.16103 36.7031 2.72153 36.8538 3.32421L37.4476 5.69937M40.1907 31.0505C39.5337 32.4551 38.8742 33.976 38.2122 35.6131H37.7244C37.7325 35.5507 37.7407 35.4882 37.7489 35.4258C37.8171 34.9084 37.8894 34.3918 37.9657 33.876C38.1318 32.7533 38.3172 31.6343 38.5218 30.519C39.2226 26.6998 40.1491 22.924 41.3014 19.1915C41.3014 18.3967 40.9762 17.9992 40.3259 17.9992C38.7722 17.9992 37.4354 20.1851 36.3153 24.557C35.2314 28.9289 34.6894 33.8066 34.6894 39.1901C34.6894 42.0444 35.2675 43.4716 36.4237 43.4716C36.9295 43.4716 37.1825 43.2548 37.1825 42.8213C37.1825 42.3516 37.7244 40.7437 38.8084 37.9978C38.8916 37.784 38.9773 37.5682 39.0655 37.3502C39.2233 36.96 39.389 36.563 39.5625 36.1592C40.5541 33.8517 41.8021 31.3211 43.3067 28.5676C45.0706 25.3392 46.7579 22.9539 48.3686 21.4118C48.4239 21.3588 48.4792 21.3068 48.5343 21.2558C48.6166 21.1797 48.6987 21.1059 48.7805 21.0342C48.8119 21.0092 48.8429 20.9852 48.8737 20.9623C48.8939 20.9473 48.9139 20.9328 48.9338 20.9188C49.2344 20.7067 49.5085 20.6007 49.7561 20.6007C49.7948 20.6007 49.8312 20.6025 49.8653 20.6063C50.2131 20.6445 50.3213 20.8774 50.1896 21.3052C50.1012 21.6445 50.0153 21.9822 49.9319 22.3183C49.9297 22.3273 49.9275 22.3362 49.9253 22.3452C48.5479 27.9048 47.8592 33.032 47.8592 37.7268C47.8592 40.8702 48.2386 43.4174 48.9973 45.3685C49.7922 47.3557 50.8761 48.3493 52.2491 48.3493C52.4578 48.3493 52.6633 48.3124 52.8658 48.2387C53.1542 48.1336 53.4365 47.9537 53.7124 47.699C53.9573 47.4891 54.164 47.3003 54.3327 47.1328C54.4487 47.0176 54.5467 46.9123 54.6267 46.8171C54.6394 46.802 54.6517 46.787 54.6635 46.7724C54.6925 46.7365 54.7187 46.7021 54.7422 46.6692C55.248 45.8743 55.248 45.4769 54.7422 45.4769C54.5976 45.4769 54.3266 45.6395 53.9292 45.9647C53.9033 45.9882 53.8774 46.0109 53.8514 46.0329C53.8356 46.0463 53.8197 46.0593 53.8039 46.0721C53.6988 46.1568 53.5925 46.2292 53.485 46.2891C53.2272 46.4328 52.9624 46.5053 52.6904 46.5066C52.6878 46.5066 52.6853 46.5066 52.6827 46.5066C52.6579 46.5066 52.6334 46.5057 52.6092 46.5038C52.5607 46.5001 52.5134 46.4926 52.4671 46.4813C51.4908 46.244 51.0026 44.3375 51.0026 40.7618C51.0026 38.1242 51.3278 35.0531 51.9781 31.5484C52.6646 28.0437 53.2066 25.6229 53.604 24.286C54.0015 22.913 54.3266 21.811 54.5796 20.98C54.5796 19.2096 53.6582 18.3244 51.8155 18.3244C51.0221 18.3244 50.2246 18.5111 49.423 18.8845C48.8974 19.1293 48.3701 19.4544 47.841 19.8598C47.8235 19.8732 47.8059 19.8867 47.7884 19.9004C45.8287 21.4211 43.8448 24.0424 41.8368 27.7644C41.2899 28.7781 40.7412 29.8735 40.1907 31.0505ZM41.5423 24.7809C41.9685 23.0797 42.4415 21.3874 42.9612 19.704L43.0385 19.4536V19.1915C43.0385 18.6015 42.9248 17.8364 42.4019 17.1973C41.8244 16.4915 41.0211 16.2621 40.3259 16.2621C38.6268 16.2621 37.4486 17.4693 36.6761 18.7324C35.8739 20.0441 35.2082 21.8792 34.6326 24.1259L34.6293 24.139C33.5056 28.6711 32.9523 33.6921 32.9523 39.1901C32.9523 40.683 33.0962 42.0244 33.513 43.0534C33.7278 43.5836 34.0533 44.1274 34.5612 44.5453C35.0987 44.9877 35.7449 45.2087 36.4237 45.2087C36.8845 45.2087 37.5542 45.1157 38.1232 44.6279C38.7171 44.1189 38.9037 43.4424 38.9185 42.8938C38.9228 42.8719 38.9348 42.8093 38.9649 42.6941C39.0183 42.4892 39.106 42.2008 39.235 41.818C39.4922 41.055 39.8863 39.998 40.4241 38.6356L40.4269 38.6284C41.4766 35.9343 42.9407 32.8601 44.831 29.4005C45.7726 27.6772 46.6715 26.239 47.5237 25.067C46.5931 29.5531 46.1221 33.7745 46.1221 37.7268C46.1221 40.9881 46.5127 43.772 47.3784 45.9981L47.3845 46.0136C48.2747 48.2392 49.8011 50.0864 52.2491 50.0864C53.2856 50.0864 54.1666 49.635 54.8652 48.9987C55.3765 48.5592 55.8489 48.1083 56.1557 47.6789L56.1827 47.641L56.2077 47.6018C56.3646 47.3551 56.5125 47.0931 56.6258 46.826C56.7298 46.5808 56.8586 46.2086 56.8586 45.775C56.8586 45.2813 56.6804 44.6416 56.0999 44.1855C55.5991 43.7921 55.0488 43.7398 54.7422 43.7398C54.1543 43.7398 53.6916 44.0165 53.5368 44.1093C53.3748 44.2065 53.2116 44.3213 53.0517 44.4437C52.8641 43.7131 52.7397 42.5175 52.7397 40.7618C52.7397 38.2622 53.0483 35.3042 53.6845 31.8738C54.3709 28.37 54.8985 26.0275 55.2691 24.781L55.2726 24.769C55.669 23.3995 55.9918 22.306 56.2414 21.4858L56.3166 21.2385V20.98C56.3166 19.809 56.0083 18.616 55.0921 17.7357C54.1888 16.8679 52.9876 16.5873 51.8155 16.5873C48.8081 16.5873 46.1252 18.5456 43.7436 21.5724C43.0061 22.5097 42.2726 23.5802 41.5423 24.7809ZM59.5979 20.085C59.468 19.8405 59.403 19.5427 59.403 19.1915C59.403 19.0844 59.414 18.9872 59.436 18.8999C59.5033 18.634 59.6729 18.4602 59.9449 18.3786C59.9811 18.3425 60.0353 18.3244 60.1075 18.3244C60.3243 18.5773 60.7217 18.7038 61.2998 18.7038C61.9141 18.7038 62.8715 18.6676 64.1723 18.5954C65.8704 14.0067 67.4963 11.7124 69.05 11.7124C69.6642 11.7124 69.9713 12.0557 69.9713 12.7421C69.5549 13.7832 69.101 15.0399 68.6095 16.5121C68.4219 17.0742 68.2289 17.6677 68.0303 18.2926C68.027 18.3032 68.0236 18.3138 68.0202 18.3244C68.6942 18.2495 69.324 18.1817 69.9095 18.1209C71.5663 17.9489 72.8687 17.8334 73.8167 17.7744C73.9923 17.7635 74.1558 17.7545 74.307 17.7475C74.5821 17.7346 74.8169 17.7282 75.0116 17.7282C75.3006 17.7282 75.4452 17.8728 75.4452 18.1618C75.4452 18.5186 75.3006 18.7653 75.0116 18.9019C74.8323 18.9866 74.5975 19.029 74.307 19.029C74.2604 19.029 74.1875 19.0342 74.0886 19.0446C73.3989 19.1175 71.4391 19.4444 68.2092 20.0254C68.0866 20.0474 67.9622 20.0698 67.836 20.0926C67.7008 20.117 67.5635 20.1418 67.4241 20.1671C64.5697 29.1998 63.1425 36.5164 63.1425 42.1167C63.1425 47.717 64.2626 50.5172 66.5027 50.5172C66.5642 50.5172 66.6254 50.5153 66.6863 50.5117C67.2215 50.4794 67.7373 50.3052 68.2338 49.9893C68.5119 49.8123 68.784 49.5908 69.05 49.3249C69.4564 48.9369 69.8015 48.5489 70.0851 48.1609C70.1882 48.0198 70.2833 47.8787 70.3702 47.7377C70.5116 47.508 70.6316 47.2783 70.73 47.0486C70.8003 46.8553 70.909 46.7304 71.0562 46.6738C71.0684 46.6692 71.0808 46.665 71.0935 46.6612C71.243 46.6171 71.4289 46.6379 71.6514 46.7234C71.8682 46.7957 71.9404 46.9041 71.8682 47.0486C71.8158 47.1621 71.7602 47.2799 71.7015 47.4018C71.6931 47.4192 71.6847 47.4366 71.6763 47.4541C71.5386 47.7385 71.384 48.0455 71.2125 48.3749C71.1616 48.4728 71.1092 48.5726 71.0552 48.6745C70.8263 49.1069 70.4451 49.611 69.9118 50.1867C69.9054 50.1936 69.8989 50.2005 69.8925 50.2075C69.6731 50.4433 69.4284 50.691 69.1584 50.9508C68.4379 51.6435 67.7069 52.0706 66.9652 52.232C66.7398 52.2811 66.5133 52.3057 66.2859 52.3057C61.9863 52.3057 59.8365 48.5661 59.8365 41.087C59.8365 35.2956 60.8216 29.1406 62.7919 22.6218C62.9727 22.0234 63.1619 21.4219 63.3593 20.8174C62.8535 20.8897 62.2393 20.9258 61.5166 20.9258C61.5108 20.9258 61.5051 20.9258 61.4993 20.9258C60.5279 20.9225 59.8942 20.6423 59.5979 20.085ZM60.9736 22.6397C60.2318 22.5741 59.4653 22.3568 58.8295 21.8351C57.9709 21.1306 57.6659 20.138 57.6659 19.1915C57.6659 18.7432 57.759 18.2008 58.0931 17.6996C58.3795 17.27 58.767 16.9845 59.1747 16.8123C59.5245 16.6286 59.8721 16.5873 60.1075 16.5873H60.9065L61.2306 16.9655C61.2514 16.9663 61.2744 16.9667 61.2998 16.9667C61.6842 16.9667 62.2335 16.951 62.9555 16.9181C63.6948 15.0642 64.454 13.5492 65.248 12.4288C66.1326 11.1805 67.3807 9.97534 69.05 9.97534C69.6779 9.97534 70.4522 10.1597 71.0355 10.8116C71.5859 11.4267 71.7084 12.1758 71.7084 12.7421V13.0767L71.5841 13.3873C71.2542 14.2122 70.8962 15.1868 70.5103 16.3136C72.6293 16.1023 74.1437 15.9912 75.0116 15.9912C75.4239 15.9912 76.0521 16.0954 76.5651 16.6083C77.078 17.1213 77.1822 17.7495 77.1822 18.1618C77.1822 18.8645 76.9271 19.6501 76.2134 20.1939C75.5889 20.6697 74.8578 20.766 74.307 20.766C74.3257 20.766 74.3224 20.7664 74.2881 20.7702C74.2369 20.7758 74.1163 20.7891 73.8957 20.8202C73.5791 20.8648 73.1396 20.9334 72.5716 21.0273C71.6321 21.1826 70.3652 21.4033 68.7683 21.6898C66.1474 30.1847 64.8796 36.9749 64.8796 42.1167C64.8796 44.8523 65.1604 46.6844 65.5954 47.7719C65.8069 48.3006 66.0142 48.549 66.1447 48.6577C66.2444 48.7408 66.3383 48.7801 66.5027 48.7801C66.8384 48.7801 67.2683 48.6499 67.8217 48.0966L67.8359 48.0823L67.8506 48.0683C68.5158 47.4333 68.9103 46.871 69.1211 46.3926C69.3235 45.8773 69.7393 45.2964 70.4907 45.0312C71.1782 44.7885 71.8188 44.9322 72.2397 45.0888C72.4842 45.1742 72.9726 45.384 73.3135 45.8954C73.7704 46.5807 73.6645 47.3127 73.4403 47.7874C73.2077 48.2909 72.9233 48.8584 72.5904 49.4872C72.1335 50.3503 71.3398 51.263 70.3623 52.2029C69.2109 53.3101 67.8444 54.0427 66.2859 54.0427C63.5119 54.0427 61.3265 52.7734 59.9429 50.3667C58.6427 48.1049 58.0995 44.936 58.0995 41.087C58.0995 35.2551 59.0654 29.1035 60.9736 22.6397ZM91.9482 29.6494C89.5884 33.4331 86.29 35.5075 82.128 35.5075C81.4042 35.5075 80.6666 35.3883 79.9962 35.0531C79.9057 35.0079 79.8177 34.9593 79.7325 34.9076C79.633 35.7714 79.5835 36.6388 79.5835 37.51C79.5835 40.9347 80.5525 42.0383 81.5108 42.3745L81.5293 42.381C81.6713 42.4326 81.9579 42.4933 82.4531 42.4933C82.7846 42.4933 83.194 42.4172 83.6956 42.2102C84.2351 41.9512 84.6481 41.6704 84.9603 41.3823C85.7696 40.6352 86.4294 39.8222 86.9494 38.9434C87.4702 37.9691 88.4275 37.6156 89.2819 37.6156C89.6481 37.6156 90.1338 37.6391 90.5781 37.7959C90.8038 37.8756 91.1863 38.0466 91.5004 38.4235C91.872 38.8694 92.0052 39.4323 91.9167 39.9634L91.9022 40.0501L91.8791 40.1349C91.757 40.5828 91.5169 41.0221 91.2856 41.3943C91.0392 41.7907 90.7217 42.2369 90.3466 42.7254C89.6231 43.7137 88.9072 44.5552 88.1962 45.2243L88.1937 45.2267C87.4423 45.9311 86.4968 46.5106 85.416 46.9943C84.2651 47.5636 83.0553 47.8643 81.8028 47.8643C79.614 47.8643 77.6564 47.3453 76.0673 46.1682C74.4752 44.9889 73.4219 43.274 72.8179 41.1914L72.8122 41.1718L72.807 41.1521C72.4425 39.7752 72.2614 38.361 72.2614 36.9138C72.2614 34.2265 72.8824 31.3714 74.0615 28.3666L74.0702 28.3444C75.9404 23.7645 78.5843 20.303 82.0837 18.1463L82.0949 18.1395L82.1061 18.1328C84.041 16.9801 86.0792 16.3705 88.198 16.3705C89.9167 16.3705 91.499 16.8866 92.6082 18.1855C93.6725 19.4318 94.054 21.1167 94.054 22.9311C94.054 25.1703 93.3063 27.4126 91.9591 29.6316L91.9482 29.6494ZM89.4136 41.0681C89.5478 40.8798 89.6654 40.7061 89.7665 40.5469C89.7849 40.518 89.8027 40.4896 89.8199 40.4617C90.0221 40.1348 90.1499 39.8735 90.2033 39.6779C90.2394 39.4611 89.9323 39.3527 89.2819 39.3527C89.2062 39.3527 89.1351 39.3579 89.0686 39.3684C88.9733 39.3834 88.8873 39.4092 88.8108 39.4458C88.6641 39.5159 88.552 39.6257 88.4746 39.7751C88.4727 39.7788 88.4708 39.7825 88.469 39.7863C88.2656 40.1332 88.0444 40.4703 87.8053 40.7974C87.7983 40.807 87.7912 40.8167 87.7842 40.8263C87.3063 41.4763 86.7577 42.0871 86.1385 42.6587C86.0761 42.7163 86.0118 42.7729 85.9456 42.8286C85.9448 42.8293 85.944 42.8299 85.9432 42.8306C85.5114 43.1932 84.9984 43.5153 84.4042 43.7968C84.2744 43.8515 84.1458 43.901 84.0186 43.9453C83.9952 43.9534 83.9718 43.9614 83.9485 43.9692C83.6879 44.0564 83.4328 44.1218 83.1831 44.1653C82.9344 44.2087 82.691 44.2304 82.4531 44.2304C81.8389 44.2304 81.3331 44.1581 80.9356 44.0136C78.8762 43.291 77.8464 41.1231 77.8464 37.51C77.8464 36.0377 77.9778 34.5783 78.2407 33.1319C78.3735 32.4011 78.5398 31.6736 78.7397 30.9494C79.2898 28.9562 80.0941 26.988 81.1524 25.0448C82.1923 23.1656 83.2737 21.7609 84.3966 20.8306C85.4974 19.9185 86.6381 19.4625 87.8186 19.4625C87.9526 19.4625 88.079 19.4719 88.198 19.4906C88.5696 19.549 88.8677 19.6988 89.0923 19.9399C89.4355 20.3083 89.6071 20.8898 89.6071 21.6846C89.6071 23.6718 88.7399 25.8577 87.0057 28.2424C85.7117 30.0408 84.3378 31.2934 82.884 32.0002C82.6344 32.1215 82.3823 32.2268 82.128 32.316C81.8361 32.4183 81.5411 32.4994 81.2431 32.5594C80.8672 32.635 80.4864 32.6768 80.1006 32.685C80.0538 32.686 80.007 32.6865 79.9601 32.6865C79.9914 32.7491 80.0254 32.809 80.0621 32.8661C80.2374 33.139 80.4743 33.3501 80.773 33.4994C81.1344 33.6801 81.586 33.7704 82.128 33.7704C82.5482 33.7704 82.9584 33.7458 83.3584 33.6964C86.2606 33.3387 88.6325 31.6832 90.4742 28.7301C91.7027 26.7068 92.3169 24.7738 92.3169 22.9311C92.3169 20.502 91.5335 18.9904 89.9666 18.3962C89.4592 18.2038 88.8697 18.1076 88.198 18.1076C88.0713 18.1076 87.9449 18.1102 87.8186 18.1154C86.3297 18.1764 84.8665 18.5973 83.4291 19.378C83.2842 19.4567 83.1395 19.5391 82.9951 19.6251C79.8878 21.5401 77.449 24.6654 75.6786 29.0011C74.5585 31.8555 73.9985 34.493 73.9985 36.9138C73.9985 38.2146 74.1611 39.4791 74.4862 40.7076C75.534 44.3207 77.9729 46.1273 81.8028 46.1273C82.4105 46.1273 83.0112 46.0361 83.6049 45.8538C83.9642 45.7435 84.321 45.5998 84.6752 45.4227C84.7935 45.3701 84.9089 45.3167 85.0214 45.2626C85.0424 45.2524 85.0633 45.2423 85.0841 45.2321C85.8703 44.8476 86.5108 44.4233 87.0057 43.9594C87.0642 43.9043 87.123 43.8476 87.1822 43.7893C87.7441 43.2351 88.3356 42.5331 88.9567 41.6831C89.1189 41.4723 89.2656 41.2752 89.3968 41.0917C89.4023 41.084 89.4082 41.0757 89.4136 41.0681C89.4134 41.0683 89.4138 41.0678 89.4136 41.0681ZM80.558 30.9116C82.1727 30.706 83.8587 29.6419 85.5956 27.2278L85.6008 27.2207C87.2185 24.9963 87.87 23.1657 87.87 21.6846C87.87 21.4558 87.8492 21.2992 87.8267 21.1996C87.824 21.1996 87.8214 21.1996 87.8186 21.1996C86.445 21.1996 84.6702 22.2773 82.6748 25.8813C81.7684 27.5464 81.064 29.2226 80.558 30.9116ZM110.321 18.4104C111.858 17.0408 113.284 16.3439 114.597 16.3198C114.621 16.3193 114.644 16.3191 114.668 16.3191C114.706 16.3191 114.743 16.3203 114.78 16.3227C115.089 16.3432 115.341 16.4504 115.535 16.6443C115.788 16.8611 115.914 17.1321 115.914 17.4573C115.661 17.7102 115.354 18.0895 114.993 18.5954C114.632 19.1012 114.144 20.3116 113.53 22.2266C112.915 24.1054 112.608 26.1648 112.608 28.405C112.608 28.694 112.518 28.8385 112.337 28.8385C111.911 28.8385 111.551 28.694 111.257 28.405C111.148 28.2978 111.048 28.1708 110.958 28.024C110.93 27.9789 110.903 27.932 110.877 27.8831C110.477 27.138 110.278 25.957 110.278 24.3402C110.278 23.9009 110.3 23.4687 110.343 23.0439C110.447 22.0297 110.675 21.0568 111.027 20.1253C111.098 19.9389 111.173 19.7541 111.253 19.5709C110.911 19.868 110.563 20.2008 110.21 20.5694C109.711 21.0896 109.2 21.6812 108.679 22.344C106.919 24.5817 105.031 27.6317 103.016 31.4942C102.144 33.1534 101.398 34.6474 100.777 35.9762C100.59 36.377 100.414 36.7627 100.25 37.1334C99.0585 39.8163 98.4631 41.7122 98.4631 42.8213C98.4631 43.2548 98.174 43.4716 97.5959 43.4716C96.5481 43.4716 96.0242 42.0444 96.0242 39.1901C96.0242 33.8066 96.5662 28.9289 97.6501 24.557C98.734 20.1851 100.053 17.9992 101.606 17.9992C102.293 17.9992 102.636 18.3967 102.636 19.1915C101.478 22.8685 100.547 26.6068 99.8454 30.4066C99.646 31.4858 99.465 32.5701 99.3024 33.6593C99.2238 34.1853 99.1496 34.7125 99.0797 35.2409C99.0728 35.2927 99.066 35.3445 99.0592 35.3963H99.4386C100.112 33.8406 100.803 32.3634 101.509 30.9648C101.543 30.897 101.578 30.8293 101.612 30.7618C101.613 30.7606 101.613 30.7594 101.614 30.7582C103.946 26.1771 106.454 22.448 109.14 19.5709C109.276 19.4251 109.411 19.2842 109.546 19.1481C109.622 19.071 109.698 18.9953 109.774 18.9213C109.943 18.7555 110.112 18.5977 110.279 18.4478C110.293 18.4352 110.307 18.4228 110.321 18.4104ZM102.753 25.1805C104.371 22.5768 106.075 20.309 107.87 18.3857C109.983 16.1216 112.261 14.5821 114.668 14.5821C115.382 14.5821 116.122 14.8034 116.715 15.3684C117.311 15.9025 117.651 16.6333 117.651 17.4573V18.1768L117.143 18.6855C116.989 18.8391 116.746 19.1292 116.407 19.605C116.353 19.6801 116.203 19.9466 115.967 20.5318C115.745 21.0831 115.484 21.8208 115.184 22.7571L115.181 22.7663C114.631 24.4494 114.345 26.3241 114.345 28.405C114.345 28.6742 114.313 29.171 114.014 29.6508C113.629 30.2667 112.983 30.5756 112.337 30.5756C111.657 30.5756 110.992 30.3825 110.414 29.9617C109.855 29.5544 109.473 29.0052 109.213 28.4371C108.832 27.605 108.642 26.5799 108.572 25.4419C107.324 27.2833 105.984 29.5604 104.556 32.2977L104.554 32.3016C103.049 35.1671 101.941 37.4984 101.213 39.3095C100.457 41.1902 100.2 42.3019 100.2 42.8213C100.2 43.4619 99.9602 44.1949 99.2885 44.6987C98.7108 45.132 98.052 45.2087 97.5959 45.2087C96.896 45.2087 96.252 44.9545 95.7405 44.49C95.2664 44.0595 94.975 43.5135 94.7865 42.9998C94.4169 41.9932 94.2871 40.6748 94.2871 39.1901C94.2871 33.6921 94.8404 28.6711 95.9641 24.139C96.5211 21.8922 97.172 20.0553 97.9648 18.7413C98.7289 17.4747 99.9028 16.2621 101.606 16.2621C102.289 16.2621 103.097 16.4717 103.693 17.1619C104.247 17.8035 104.373 18.5837 104.373 19.1915V19.4587L104.293 19.7135C103.724 21.5207 103.21 23.343 102.753 25.1805Z" fill="#D11117"/>
<path d="M121.57 44.3929V21.2898H130.68C133.364 21.2898 135.498 21.9939 137.082 23.4021C138.667 24.8103 139.459 26.7026 139.459 29.0789C139.459 31.5652 138.579 33.5015 136.818 34.8876C135.08 36.2738 132.88 36.9669 130.217 36.9669H125.63V44.3929H121.57ZM125.63 33.3034H130.349C131.868 33.3034 133.078 32.9184 133.98 32.1483C134.882 31.3782 135.333 30.366 135.333 29.1119C135.333 27.7917 134.882 26.7796 133.98 26.0755C133.1 25.3494 131.89 24.9863 130.349 24.9863H125.63V33.3034Z" fill="white"/>
<path d="M163.32 41.2905C161.031 43.6228 158.138 44.7889 154.64 44.7889C151.141 44.7889 148.259 43.6338 145.992 41.3235C143.726 39.0132 142.593 36.1858 142.593 32.8414C142.593 29.5409 143.737 26.7246 146.025 24.3923C148.314 22.06 151.207 20.8938 154.706 20.8938C158.204 20.8938 161.086 22.049 163.353 24.3593C165.619 26.6696 166.752 29.4969 166.752 32.8414C166.752 36.1418 165.608 38.9582 163.32 41.2905ZM149.062 38.6831C150.558 40.2673 152.439 41.0595 154.706 41.0595C156.972 41.0595 158.831 40.2673 160.283 38.6831C161.758 37.0989 162.495 35.1517 162.495 32.8414C162.495 30.5531 161.747 28.6168 160.25 27.0326C158.776 25.4264 156.906 24.6233 154.64 24.6233C152.373 24.6233 150.503 25.4154 149.029 26.9996C147.577 28.5838 146.851 30.5311 146.851 32.8414C146.851 35.1297 147.588 37.0769 149.062 38.6831Z" fill="white"/>
<path d="M171.657 44.3929V21.2898H181.954C184.639 21.2898 186.74 21.9609 188.258 23.3031C189.776 24.6233 190.535 26.4055 190.535 28.6498C190.535 30.4761 190.04 31.9833 189.05 33.1714C188.06 34.3376 186.718 35.1627 185.024 35.6467L191.262 44.3929H186.476L180.733 36.3398H175.717V44.3929H171.657ZM175.717 32.7424H181.657C183.109 32.7424 184.265 32.3903 185.123 31.6862C185.981 30.9821 186.41 30.025 186.41 28.8148C186.41 27.5827 185.992 26.6366 185.156 25.9765C184.32 25.3164 183.142 24.9863 181.624 24.9863H175.717V32.7424Z" fill="white"/>
<path d="M195.508 44.3929V21.2898H199.27L211.647 37.264V21.2898H215.64V44.3929H212.241L199.501 27.9567V44.3929H195.508Z" fill="white"/>
</svg>
