<svg width="124" height="32" viewBox="0 0 124 32" fill="none" xmlns="http://www.w3.org/2000/svg">
<path d="M19.3768 2.2256C19.7096 2.2256 19.9072 2.3504 19.9696 2.6L20.0008 2.7248C19.3976 2.7248 18.8776 3.1096 18.4408 3.8792C18.0248 4.6488 17.7128 5.668 17.5048 6.9368C17.2968 8.1848 17.068 9.62 16.8184 11.2424C16.5688 12.844 16.3296 14.4872 16.1008 16.172C15.8928 17.8568 15.5496 19.5104 15.0712 21.1328C14.5928 22.7344 14.0312 24.1696 13.3864 25.4384C12.7624 26.6864 11.8888 27.6952 10.7656 28.4648C9.6424 29.2344 8.3112 29.6192 6.772 29.6192C5.2328 29.6192 3.964 29.1616 2.9656 28.2464C1.988 27.3312 1.4264 26.2184 1.2808 24.908C1.2392 24.4712 1.2184 23.9304 1.2184 23.2856C1.2184 22.62 1.3328 21.7464 1.5616 20.6648C1.8112 19.5624 2.3832 18.5536 3.2776 17.6384C4.1928 16.7232 5.2328 16.2656 6.3976 16.2656C6.7096 16.2656 6.9488 16.3592 7.1152 16.5464C7.3024 16.7336 7.4272 17.0144 7.4896 17.3888C5.6176 17.3888 4.1408 18.3144 3.0592 20.1656C2.3728 21.372 2.0296 22.5784 2.0296 23.7848C2.0296 24.4296 2.1336 25.0848 2.3416 25.7504C2.924 27.6016 4.2864 28.5272 6.4288 28.5272C7.5936 28.5272 8.6128 28.1424 9.4864 27.3728C10.3808 26.624 11.0984 25.6152 11.6392 24.3464C12.18 23.0568 12.648 21.632 13.0432 20.072C13.4384 18.4912 13.7816 16.848 14.0728 15.1424C14.364 13.4368 14.6448 11.8248 14.9152 10.3064C15.6016 6.6872 16.444 4.316 17.4424 3.1928C15.82 3.7544 14.3432 4.6488 13.012 5.876C11.7016 7.0824 11.0464 8.4032 11.0464 9.8384C11.0464 10.4832 11.2648 10.8056 11.7016 10.8056C11.66 11.0968 11.4416 11.2424 11.0464 11.2424C10.672 11.2424 10.3288 11.0864 10.0168 10.7744C9.7256 10.4624 9.58 10.0152 9.58 9.4328C9.58 8.2056 10.1832 7.02 11.3896 5.876C12.6168 4.7112 13.9792 3.8168 15.4768 3.1928C16.9952 2.548 18.2952 2.2256 19.3768 2.2256ZM21.7217 20.9456C24.4049 14.3104 27.0153 10.9928 29.5529 10.9928C30.6137 10.9928 31.1441 11.5024 31.1441 12.5216C30.9985 13 30.8113 13.6344 30.5825 14.4248C30.3537 15.1944 30.0417 16.588 29.6465 18.6056C29.2721 20.6232 29.0849 22.3912 29.0849 23.9096C29.0849 26.1144 29.4073 27.2168 30.0521 27.2168C30.3017 27.2168 30.5409 27.1128 30.7697 26.9048C30.9985 26.7176 31.1545 26.624 31.2377 26.624C31.5289 26.624 31.5289 26.8528 31.2377 27.3104C31.1337 27.456 30.9361 27.6536 30.6449 27.9032C30.3745 28.1528 30.0937 28.2776 29.8025 28.2776C29.0121 28.2776 28.3881 27.7056 27.9305 26.5616C27.4937 25.4384 27.2753 23.972 27.2753 22.1624C27.2753 19.292 27.7225 16.1408 28.6169 12.7088C28.7001 12.4384 28.6169 12.3032 28.3673 12.3032C28.2009 12.3032 28.0137 12.3864 27.8057 12.5528C26.8073 13.4264 25.7569 14.872 24.6545 16.8896C23.5521 18.9072 22.6889 20.7168 22.0649 22.3184C21.4409 23.8992 21.1289 24.8248 21.1289 25.0952C21.1289 25.3448 20.9833 25.4696 20.6921 25.4696C20.0265 25.4696 19.6937 24.648 19.6937 23.0048C19.6937 19.9056 20.0057 17.0976 20.6297 14.5808C21.2745 12.064 22.0441 10.8056 22.9385 10.8056C23.3129 10.8056 23.5001 11.0344 23.5001 11.492C22.5433 14.5912 21.8569 17.7424 21.4409 20.9456H21.7217ZM35.1377 12.4904C34.3265 12.4904 33.9209 12.1576 33.9209 11.492C33.9209 11.2424 34.0249 11.0864 34.2329 11.024C34.2537 11.0032 34.2849 10.9928 34.3265 10.9928C34.4513 11.1384 34.6801 11.2112 35.0129 11.2112C35.3665 11.2112 35.9177 11.1904 36.6665 11.1488C37.6441 8.5072 38.5801 7.1864 39.4745 7.1864C39.8281 7.1864 40.0049 7.384 40.0049 7.7792C39.6721 8.6112 39.2977 9.6824 38.8817 10.9928C40.9409 10.764 42.2825 10.6496 42.9065 10.6496C43.0729 10.6496 43.1561 10.7328 43.1561 10.8992C43.1561 11.232 42.9377 11.3984 42.5009 11.3984C42.2721 11.3984 40.9513 11.6168 38.5385 12.0536C36.8953 17.2536 36.0737 21.4656 36.0737 24.6896C36.0737 27.9136 36.7185 29.5256 38.0081 29.5256C38.5281 29.5256 39.0169 29.2968 39.4745 28.8392C39.9321 28.4024 40.2545 27.9656 40.4417 27.5288C40.5249 27.3 40.7017 27.2376 40.9721 27.3416C41.0969 27.3832 41.1385 27.4456 41.0969 27.5288C40.9721 27.7992 40.8161 28.1112 40.6289 28.4648C40.4417 28.8184 40.0777 29.2552 39.5369 29.7752C38.9961 30.2952 38.4449 30.5552 37.8833 30.5552C35.4081 30.5552 34.1705 28.4024 34.1705 24.0968C34.1705 20.4568 34.8465 16.5672 36.1985 12.428C35.9073 12.4696 35.5537 12.4904 35.1377 12.4904ZM50.4976 10.868C52.0784 10.868 52.8688 11.7936 52.8688 13.6448C52.8688 14.7056 52.5152 15.8184 51.808 16.9832C50.6016 18.9176 49 19.8848 47.0032 19.8848C46.6912 19.8848 46.4312 19.8328 46.2232 19.7288C46.0152 19.6248 45.8592 19.4688 45.7552 19.2608C47.232 19.2608 48.584 18.408 49.8112 16.7024C50.8096 15.3296 51.3088 14.0712 51.3088 12.9272C51.3088 12.0744 50.9656 11.648 50.2792 11.648C48.9064 11.648 47.6272 12.7192 46.4416 14.8616C45.1728 17.1912 44.5384 19.5832 44.5384 22.0376C44.5384 24.1176 45.1312 25.3656 46.3168 25.7816C46.5456 25.8648 46.8368 25.9064 47.1904 25.9064C47.544 25.9064 47.9184 25.8232 48.3136 25.6568C48.7088 25.4696 49.0416 25.2512 49.312 25.0016C49.8528 24.5024 50.3 23.9512 50.6536 23.348C50.7368 23.1816 50.8928 23.0984 51.1216 23.0984C51.496 23.0984 51.6728 23.1608 51.652 23.2856C51.5896 23.5144 51.3504 23.8992 50.9344 24.44C50.5392 24.9808 50.1648 25.4176 49.8112 25.7504C49.4784 26.0624 49.0312 26.3432 48.4696 26.5928C47.9288 26.8632 47.3776 26.9984 46.816 26.9984C44.6112 26.9984 43.2072 25.9584 42.604 23.8784C42.4168 23.1712 42.3232 22.4432 42.3232 21.6944C42.3232 20.3008 42.6456 18.7824 43.2904 17.1392C44.3096 14.6432 45.7136 12.844 47.5024 11.7416C48.48 11.1592 49.4784 10.868 50.4976 10.868ZM64.3943 17.0456C63.6039 17.0456 63.2087 16.1824 63.2087 14.456C63.2087 13.4784 63.3959 12.5632 63.7703 11.7104C62.3559 12.9376 60.7751 15.2256 59.0279 18.5744C57.2807 21.9024 56.4071 24.076 56.4071 25.0952C56.4071 25.3448 56.2407 25.4696 55.9079 25.4696C55.3047 25.4696 55.0031 24.648 55.0031 23.0048C55.0031 19.9056 55.3151 17.0976 55.9391 14.5808C56.5631 12.064 57.3223 10.8056 58.2167 10.8056C58.6119 10.8056 58.8095 11.0344 58.8095 11.492C57.8527 14.5288 57.1663 17.6384 56.7503 20.8208H56.9687C58.6535 16.9312 60.5151 13.8944 62.5535 11.7104C63.7183 10.4624 64.7791 9.8384 65.7359 9.8384C65.9439 9.8384 66.1103 9.9008 66.2351 10.0256C66.3807 10.1504 66.4535 10.3064 66.4535 10.4936C66.3079 10.6392 66.1311 10.8576 65.9231 11.1488C65.7151 11.44 65.4343 12.1368 65.0807 13.2392C64.7271 14.3208 64.5503 15.5064 64.5503 16.796C64.5503 16.9624 64.4983 17.0456 64.3943 17.0456Z" fill="#D11117"/>
<path d="M19.9696 2.6L18.9995 2.84253L18.9995 2.84254L19.9696 2.6ZM20.0008 2.7248V3.7248H21.2816L20.9709 2.48226L20.0008 2.7248ZM18.4408 3.8792L17.5711 3.38559L17.566 3.39459L17.5611 3.40368L18.4408 3.8792ZM17.5048 6.9368L18.4912 7.1012L18.4916 7.09858L17.5048 6.9368ZM16.8184 11.2424L17.8065 11.3964L17.8068 11.3945L16.8184 11.2424ZM16.1008 16.172L15.1098 16.0374L15.1083 16.0495L16.1008 16.172ZM15.0712 21.1328L16.0294 21.419L16.0304 21.4156L15.0712 21.1328ZM13.3864 25.4384L12.4949 24.9853L12.492 24.9912L13.3864 25.4384ZM10.7656 28.4648L11.3308 29.2897L10.7656 28.4648ZM2.9656 28.2464L2.28214 28.9765L2.28988 28.9836L2.9656 28.2464ZM1.2808 24.908L0.285305 25.0028L0.286049 25.0106L0.286916 25.0184L1.2808 24.908ZM1.5616 20.6648L0.586287 20.444L0.584719 20.4509L0.58325 20.4578L1.5616 20.6648ZM3.2776 17.6384L2.57045 16.9312L2.56241 16.9395L3.2776 17.6384ZM7.1152 16.5464L6.36779 17.2108L6.38731 17.2327L6.40809 17.2535L7.1152 16.5464ZM7.4896 17.3888V18.3888H8.67006L8.47599 17.2244L7.4896 17.3888ZM3.0592 20.1656L2.19572 19.6611L2.19004 19.6711L3.0592 20.1656ZM2.3416 25.7504L1.38712 26.0487L1.38769 26.0505L2.3416 25.7504ZM9.4864 27.3728L8.84446 26.606L8.83481 26.6141L8.82537 26.6224L9.4864 27.3728ZM11.6392 24.3464L12.5591 24.7385L12.5614 24.7331L11.6392 24.3464ZM13.0432 20.072L14.0126 20.3176L14.0133 20.3145L13.0432 20.072ZM14.0728 15.1424L13.0871 14.9741L14.0728 15.1424ZM14.9152 10.3064L13.9327 10.1201L13.9307 10.1311L14.9152 10.3064ZM17.4424 3.1928L18.1898 3.85716L20.7337 0.995286L17.1153 2.24781L17.4424 3.1928ZM13.012 5.876L13.6893 6.6117L13.6898 6.61124L13.012 5.876ZM11.7016 10.8056L12.6915 10.947L12.8546 9.8056H11.7016V10.8056ZM10.0168 10.7744L9.28574 11.4567L9.29751 11.4693L9.30969 11.4815L10.0168 10.7744ZM11.3896 5.876L12.0777 6.60163L12.078 6.60131L11.3896 5.876ZM15.4768 3.1928L15.8614 4.1159L15.8677 4.11324L15.4768 3.1928ZM19.3768 3.2256C19.4305 3.2256 19.3558 3.23742 19.2406 3.16469C19.1797 3.12623 19.1219 3.07264 19.0761 3.00659C19.0313 2.94205 19.0095 2.88251 18.9995 2.84253L20.9397 2.35747C20.853 2.01052 20.6477 1.68791 20.3086 1.47371C19.9958 1.27618 19.6559 1.2256 19.3768 1.2256V3.2256ZM18.9995 2.84254L19.0307 2.96734L20.9709 2.48226L20.9397 2.35746L18.9995 2.84254ZM20.0008 1.7248C18.8846 1.7248 18.0942 2.46389 17.5711 3.38559L19.3105 4.37281C19.661 3.75531 19.9106 3.7248 20.0008 3.7248V1.7248ZM17.5611 3.40368C17.0736 4.30556 16.7363 5.4431 16.518 6.77503L18.4916 7.09858C18.6893 5.89291 18.976 4.99204 19.3205 4.35472L17.5611 3.40368ZM16.5184 6.7724C16.3096 8.02551 16.0801 9.46496 15.83 11.0903L17.8068 11.3945C18.0559 9.77504 18.284 8.34409 18.4912 7.1012L16.5184 6.7724ZM15.8303 11.0884C15.5797 12.6968 15.3395 14.3465 15.1099 16.0374L17.0917 16.3066C17.3197 14.6279 17.5579 12.9912 17.8065 11.3964L15.8303 11.0884ZM15.1083 16.0495C14.907 17.6802 14.5749 19.2802 14.112 20.85L16.0304 21.4156C16.5243 19.7406 16.8786 18.0334 17.0933 16.2945L15.1083 16.0495ZM14.113 20.8466C13.6489 22.4003 13.1083 23.7783 12.4949 24.9853L14.2779 25.8914C14.9541 24.5609 15.5367 23.0685 16.0294 21.419L14.113 20.8466ZM12.492 24.9912C11.9419 26.0913 11.18 26.9686 10.2004 27.6399L11.3308 29.2897C12.5976 28.4218 13.5829 27.2815 14.2808 25.8856L12.492 24.9912ZM10.2004 27.6399C9.26477 28.2809 8.13672 28.6192 6.772 28.6192V30.6192C8.48568 30.6192 10.02 30.1879 11.3308 29.2897L10.2004 27.6399ZM6.772 28.6192C5.44633 28.6192 4.42994 28.2321 3.64132 27.5092L2.28988 28.9836C3.49806 30.0911 5.01927 30.6192 6.772 30.6192V28.6192ZM3.64902 27.5164C2.84246 26.7613 2.39351 25.867 2.27468 24.7976L0.286916 25.0184C0.459291 26.5698 1.13354 27.9011 2.28218 28.9764L3.64902 27.5164ZM2.2763 24.8132C2.23873 24.4188 2.2184 23.9119 2.2184 23.2856H0.2184C0.2184 23.9489 0.239669 24.5236 0.285305 25.0028L2.2763 24.8132ZM2.2184 23.2856C2.2184 22.7201 2.31744 21.9236 2.53995 20.8718L0.58325 20.4578C0.348158 21.5692 0.2184 22.5199 0.2184 23.2856H2.2184ZM2.53691 20.8856C2.74048 19.9865 3.21014 19.1382 3.99279 18.3373L2.56241 16.9395C1.55626 17.969 0.881918 19.1383 0.586287 20.444L2.53691 20.8856ZM3.98471 18.3455C4.73521 17.595 5.52866 17.2656 6.3976 17.2656V15.2656C4.93694 15.2656 3.65039 15.8514 2.57049 16.9313L3.98471 18.3455ZM6.3976 17.2656C6.45492 17.2656 6.4651 17.2743 6.4466 17.267C6.43712 17.2633 6.42323 17.2566 6.40754 17.2457C6.39176 17.2348 6.37827 17.2226 6.36779 17.2108L7.86261 15.882C7.4614 15.4307 6.9196 15.2656 6.3976 15.2656V17.2656ZM6.40809 17.2535C6.39649 17.2419 6.46078 17.2986 6.50321 17.5532L8.47599 17.2244C8.39362 16.7302 8.20831 16.2253 7.82231 15.8393L6.40809 17.2535ZM7.4896 16.3888C5.20449 16.3888 3.42553 17.5564 2.19577 19.6611L3.92263 20.6701C4.85607 19.0724 6.03071 18.3888 7.4896 18.3888V16.3888ZM2.19004 19.6711C1.43096 21.0052 1.0296 22.3804 1.0296 23.7848H3.0296C3.0296 22.7764 3.31464 21.7388 3.92836 20.6601L2.19004 19.6711ZM1.0296 23.7848C1.0296 24.5387 1.1514 25.2944 1.38712 26.0487L3.29608 25.4521C3.1158 24.8752 3.0296 24.3205 3.0296 23.7848H1.0296ZM1.38769 26.0505C1.73393 27.151 2.33892 28.0492 3.23824 28.6602C4.12853 29.265 5.21689 29.5272 6.4288 29.5272V27.5272C5.49831 27.5272 4.83427 27.3266 4.36216 27.0058C3.89908 26.6912 3.53167 26.201 3.29551 25.4503L1.38769 26.0505ZM6.4288 29.5272C7.83685 29.5272 9.09111 29.0537 10.1474 28.1232L8.82537 26.6224C8.13449 27.2311 7.35035 27.5272 6.4288 27.5272V29.5272ZM10.1283 28.1396C11.1638 27.2726 11.9677 26.126 12.5591 24.7385L10.7193 23.9543C10.2291 25.1044 9.59776 25.9754 8.84446 26.606L10.1283 28.1396ZM12.5614 24.7331C13.124 23.3915 13.607 21.9187 14.0126 20.3176L12.0738 19.8264C11.689 21.3453 11.236 22.7221 10.717 23.9597L12.5614 24.7331ZM14.0133 20.3145C14.415 18.7077 14.7633 17.0397 15.0585 15.3107L13.0871 14.9741C12.7999 16.6563 12.4618 18.2747 12.0731 19.8295L14.0133 20.3145ZM15.0585 15.3107C15.3494 13.6072 15.6298 11.9975 15.8997 10.4817L13.9307 10.1311C13.6598 11.6521 13.3786 13.2664 13.0871 14.9741L15.0585 15.3107ZM15.8977 10.4927C16.2353 8.7127 16.606 7.26902 17.0041 6.14837C17.4073 5.01334 17.815 4.27888 18.1898 3.85716L16.695 2.52844C16.0714 3.22992 15.5587 4.24266 15.1195 5.47884C14.6752 6.72938 14.2815 8.2809 13.9327 10.1201L15.8977 10.4927ZM17.1153 2.24781C15.3558 2.85688 13.761 3.82544 12.3342 5.14076L13.6898 6.61124C14.9254 5.47216 16.2842 4.65192 17.7695 4.13779L17.1153 2.24781ZM12.3347 5.1403C10.8718 6.48708 10.0464 8.05872 10.0464 9.8384H12.0464C12.0464 8.74768 12.5314 7.67772 13.6893 6.6117L12.3347 5.1403ZM10.0464 9.8384C10.0464 10.2424 10.1091 10.7214 10.3823 11.1246C10.7025 11.5974 11.1987 11.8056 11.7016 11.8056V9.8056C11.7157 9.8056 11.7766 9.80859 11.8565 9.84789C11.9408 9.88939 12.002 9.94967 12.0381 10.003C12.0697 10.0496 12.0698 10.0723 12.0628 10.0413C12.0558 10.0105 12.0464 9.94632 12.0464 9.8384H10.0464ZM10.7116 10.6642C10.717 10.6266 10.7331 10.5606 10.778 10.4852C10.8243 10.4073 10.8865 10.3447 10.9519 10.3011C11.0705 10.2221 11.1401 10.2424 11.0464 10.2424V12.2424C11.3479 12.2424 11.7243 12.1899 12.0613 11.9653C12.4372 11.7146 12.6359 11.3364 12.6915 10.947L10.7116 10.6642ZM11.0464 10.2424C10.9842 10.2424 10.8844 10.2278 10.7239 10.0673L9.30969 11.4815C9.77319 11.945 10.3598 12.2424 11.0464 12.2424V10.2424ZM10.7479 10.0921C10.6842 10.0239 10.58 9.85556 10.58 9.4328H8.58C8.58 10.1748 8.76696 10.9009 9.28574 11.4567L10.7479 10.0921ZM10.58 9.4328C10.58 8.56676 10.9972 7.62619 12.0777 6.60163L10.7015 5.15038C9.36915 6.41381 8.58 7.84444 8.58 9.4328H10.58ZM12.078 6.60131C13.2207 5.51674 14.4811 4.69102 15.8614 4.11588L15.0922 2.26972C13.4773 2.94258 12.0129 3.90566 10.7012 5.15069L12.078 6.60131ZM15.8677 4.11324C17.3209 3.49611 18.4811 3.2256 19.3768 3.2256V1.2256C18.1093 1.2256 16.6695 1.59989 15.0859 2.27236L15.8677 4.11324ZM21.7217 20.9456V21.9456H22.396L22.6488 21.3205L21.7217 20.9456ZM31.1441 12.5216L32.1008 12.8128L32.1441 12.6704V12.5216H31.1441ZM30.5825 14.4248L31.5411 14.7098L31.5431 14.7029L30.5825 14.4248ZM29.6465 18.6056L28.6651 18.4134L28.6633 18.4231L29.6465 18.6056ZM30.7697 26.9048L30.1365 26.1308L30.1163 26.1473L30.0971 26.1649L30.7697 26.9048ZM31.2377 27.3104L32.0515 27.8916L32.067 27.8699L32.0814 27.8473L31.2377 27.3104ZM30.6449 27.9032L29.9941 27.1439L29.9802 27.1559L29.9667 27.1684L30.6449 27.9032ZM27.9305 26.5616L26.9985 26.9241L27.0021 26.933L27.9305 26.5616ZM28.6169 12.7088L27.6612 12.4147L27.6548 12.4355L27.6493 12.4566L28.6169 12.7088ZM27.8057 12.5528L27.181 11.7719L27.1638 11.7857L27.1472 11.8002L27.8057 12.5528ZM24.6545 16.8896L25.5321 17.3691L24.6545 16.8896ZM22.0649 22.3184L22.9951 22.6856L22.9967 22.6814L22.0649 22.3184ZM20.6297 14.5808L19.661 14.3326L19.6591 14.3402L20.6297 14.5808ZM23.5001 11.492L24.4556 11.787L24.5001 11.6429V11.492H23.5001ZM21.4409 20.9456L20.4493 20.8168L20.3027 21.9456H21.4409V20.9456ZM22.6488 21.3205C23.9759 18.0386 25.2575 15.6503 26.4778 14.0994C27.7172 12.5243 28.7467 11.9928 29.5529 11.9928V9.9928C27.8216 9.9928 26.2771 11.1201 24.906 12.8626C23.516 14.6293 22.1507 17.2174 20.7947 20.5707L22.6488 21.3205ZM29.5529 11.9928C29.939 11.9928 30.0431 12.0861 30.0535 12.0961C30.0565 12.0989 30.1441 12.1766 30.1441 12.5216H32.1441C32.1441 11.8474 31.9666 11.1607 31.4392 10.6539C30.9192 10.1543 30.2277 9.9928 29.5529 9.9928V11.9928ZM30.1875 12.2304C30.04 12.7151 29.8513 13.3544 29.622 14.1467L31.5431 14.7029C31.7713 13.9144 31.9571 13.2849 32.1008 12.8128L30.1875 12.2304ZM29.624 14.1398C29.3799 14.9609 29.06 16.398 28.6652 18.4134L30.6279 18.7978C31.0235 16.778 31.3276 15.4279 31.5411 14.7098L29.624 14.1398ZM28.6633 18.4231C28.2814 20.4815 28.0849 22.313 28.0849 23.9096H30.0849C30.0849 22.4694 30.2629 20.7649 30.6297 18.7881L28.6633 18.4231ZM28.0849 23.9096C28.0849 25.0367 28.1647 25.9792 28.3669 26.6707C28.4677 27.0152 28.6211 27.3777 28.8773 27.6696C29.1591 27.9908 29.5619 28.2168 30.0521 28.2168V26.2168C30.22 26.2168 30.3407 26.305 30.3807 26.3506C30.395 26.3669 30.347 26.316 30.2865 26.1093C30.1664 25.6984 30.0849 24.9873 30.0849 23.9096H28.0849ZM30.0521 28.2168C30.6063 28.2168 31.0754 27.9783 31.4424 27.6447L30.0971 26.1649C30.049 26.2085 30.0226 26.2206 30.02 26.2217C30.0189 26.2222 30.0222 26.2207 30.0293 26.2192C30.0365 26.2177 30.0445 26.2168 30.0521 26.2168V28.2168ZM31.403 27.6788C31.4491 27.641 31.487 27.6118 31.5172 27.5897C31.548 27.5673 31.566 27.5558 31.5728 27.5517C31.582 27.5462 31.5647 27.5577 31.5261 27.5728C31.5057 27.5808 31.4723 27.5926 31.428 27.6028C31.3844 27.6128 31.3191 27.624 31.2377 27.624V25.624C30.8993 25.624 30.6329 25.7833 30.5438 25.8367C30.4068 25.9189 30.2683 26.023 30.1365 26.1308L31.403 27.6788ZM31.2377 27.624C31.2068 27.624 30.9992 27.6225 30.7837 27.4532C30.5223 27.2478 30.4561 26.9654 30.4561 26.7956C30.4561 26.6604 30.4939 26.5891 30.481 26.6196C30.4734 26.6374 30.4493 26.6867 30.3941 26.7735L32.0814 27.8473C32.1718 27.7053 32.2569 27.5544 32.3221 27.4007C32.382 27.2595 32.4561 27.0452 32.4561 26.7956C32.4561 26.5114 32.3535 26.1432 32.0194 25.8806C31.7311 25.6541 31.4143 25.624 31.2377 25.624V27.624ZM30.424 26.7292C30.3951 26.7696 30.2773 26.9013 29.9941 27.1439L31.2957 28.6625C31.595 28.4059 31.8723 28.1424 32.0515 27.8916L30.424 26.7292ZM29.9667 27.1684C29.8964 27.2333 29.8484 27.26 29.8254 27.2702C29.8141 27.2752 29.8078 27.2767 29.8058 27.2772C29.804 27.2776 29.8033 27.2776 29.8025 27.2776V29.2776C30.4065 29.2776 30.9187 29.0114 31.3232 28.638L29.9667 27.1684ZM29.8025 27.2776C29.631 27.2776 29.2617 27.197 28.859 26.1902L27.0021 26.933C27.5145 28.2142 28.3933 29.2776 29.8025 29.2776V27.2776ZM28.8625 26.1992C28.4873 25.2343 28.2753 23.9041 28.2753 22.1624H26.2753C26.2753 24.0399 26.5002 25.6425 26.9985 26.924L28.8625 26.1992ZM28.2753 22.1624C28.2753 19.3943 28.7069 16.3291 29.5846 12.961L27.6493 12.4566C26.7382 15.9525 26.2753 19.1897 26.2753 22.1624H28.2753ZM29.5727 13.0029C29.637 12.794 29.7443 12.3285 29.4686 11.8805C29.1572 11.3745 28.6301 11.3032 28.3673 11.3032V13.3032C28.3542 13.3032 27.9935 13.2995 27.7653 12.9287C27.5728 12.6159 27.6801 12.3532 27.6612 12.4147L29.5727 13.0029ZM28.3673 11.3032C27.8729 11.3032 27.467 11.5432 27.181 11.7719L28.4304 13.3337C28.4573 13.3121 28.4778 13.2979 28.4918 13.2891C28.5059 13.2802 28.5113 13.2781 28.5083 13.2794C28.5028 13.2818 28.4525 13.3032 28.3673 13.3032V11.3032ZM27.1472 11.8002C26.0183 12.788 24.9007 14.3535 23.777 16.4101L25.5321 17.3691C26.6132 15.3905 27.5964 14.0648 28.4642 13.3054L27.1472 11.8002ZM23.777 16.4101C22.6604 18.4536 21.7769 20.3031 21.1332 21.9554L22.9967 22.6814C23.601 21.1305 24.4439 19.3608 25.5321 17.3691L23.777 16.4101ZM21.1348 21.9512C20.8204 22.7477 20.5793 23.3924 20.4153 23.8788C20.3336 24.1212 20.2671 24.3361 20.2198 24.5171C20.1797 24.6711 20.1289 24.8882 20.1289 25.0952H22.1289C22.1289 25.167 22.1172 25.167 22.1551 25.022C22.1858 24.904 22.2363 24.738 22.3105 24.5176C22.4586 24.0784 22.6855 23.4699 22.9951 22.6856L21.1348 21.9512ZM20.1289 25.0952C20.1289 25.0221 20.1575 24.798 20.3689 24.6167C20.5509 24.4608 20.7181 24.4696 20.6921 24.4696V26.4696C20.9574 26.4696 21.3429 26.416 21.6705 26.1353C22.0276 25.8292 22.1289 25.4179 22.1289 25.0952H20.1289ZM20.6921 24.4696C20.7501 24.4696 20.8309 24.4941 20.8908 24.5434C20.9335 24.5786 20.9129 24.5835 20.8702 24.478C20.7773 24.2488 20.6937 23.7886 20.6937 23.0048H18.6937C18.6937 23.8642 18.7765 24.6364 19.0165 25.2288C19.1401 25.5341 19.3275 25.8471 19.6199 26.0877C19.9294 26.3424 20.3014 26.4696 20.6921 26.4696V24.4696ZM20.6937 23.0048C20.6937 19.9715 20.9992 17.246 21.6003 14.8214L19.6591 14.3402C19.0123 16.9492 18.6937 19.8397 18.6937 23.0048H20.6937ZM21.5984 14.829C21.9119 13.6055 22.2359 12.7744 22.5436 12.2711C22.8685 11.7399 23.0223 11.8056 22.9385 11.8056V9.8056C21.9604 9.8056 21.2821 10.5005 20.8374 11.2277C20.3756 11.9828 19.9924 13.0393 19.661 14.3326L21.5984 14.829ZM22.9385 11.8056C22.9322 11.8056 22.8811 11.8048 22.8069 11.7746C22.7267 11.7419 22.6475 11.6858 22.5858 11.6104C22.472 11.4713 22.5001 11.3741 22.5001 11.492H24.5001C24.5001 11.1523 24.4347 10.7119 24.1337 10.344C23.8012 9.93763 23.3388 9.8056 22.9385 9.8056V11.8056ZM22.5446 11.197C21.5711 14.3503 20.8726 17.5571 20.4493 20.8168L22.4326 21.0744C22.8413 17.9277 23.5155 14.8321 24.4556 11.787L22.5446 11.197ZM21.4409 21.9456H21.7217V19.9456H21.4409V21.9456ZM34.2329 11.024L34.5202 11.9818L34.7617 11.9094L34.94 11.7311L34.2329 11.024ZM34.3265 10.9928L35.0857 10.342L34.7864 9.9928H34.3265V10.9928ZM36.6665 11.1488L36.7219 12.1473L37.3767 12.1109L37.6043 11.4959L36.6665 11.1488ZM40.0049 7.7792L40.9333 8.15059L41.0049 7.97178V7.7792H40.0049ZM38.8817 10.9928L37.9286 10.6902L37.463 12.1566L38.9921 11.9867L38.8817 10.9928ZM38.5385 12.0536L38.3603 11.0696L37.7667 11.1771L37.5849 11.7523L38.5385 12.0536ZM39.4745 28.8392L38.784 28.1158L38.7756 28.1239L38.7674 28.1321L39.4745 28.8392ZM40.4417 27.5288L41.3608 27.9227L41.3719 27.8969L41.3815 27.8705L40.4417 27.5288ZM40.9721 27.3416L40.6131 28.2749L40.6343 28.2831L40.6558 28.2903L40.9721 27.3416ZM41.0969 27.5288L40.2024 27.0816L40.1955 27.0956L40.1889 27.1097L41.0969 27.5288ZM39.5369 29.7752L40.23 30.496L39.5369 29.7752ZM36.1985 12.428L37.1491 12.7385L37.6481 11.2108L36.0571 11.4381L36.1985 12.428ZM35.1377 11.4904C35 11.4904 34.9148 11.4759 34.8691 11.4634C34.8257 11.4515 34.8324 11.4456 34.8594 11.4677C34.8905 11.4933 34.9131 11.527 34.9234 11.5524C34.9312 11.5717 34.9209 11.5588 34.9209 11.492H32.9209C32.9209 12.0369 33.0965 12.6083 33.5908 13.0139C34.0472 13.3884 34.6207 13.4904 35.1377 13.4904V11.4904ZM34.9209 11.492C34.9209 11.5005 34.9193 11.6099 34.8309 11.7425C34.7338 11.8882 34.602 11.9573 34.5202 11.9818L33.9455 10.0662C33.6557 10.1531 33.3679 10.3314 33.1668 10.6331C32.9745 10.9217 32.9209 11.2339 32.9209 11.492H34.9209ZM34.94 11.7311C34.7071 11.964 34.439 11.9928 34.3265 11.9928V9.9928C34.1307 9.9928 33.8003 10.0424 33.5258 10.3169L34.94 11.7311ZM33.5672 11.6436C33.9835 12.1293 34.5924 12.2112 35.0129 12.2112V10.2112C34.9654 10.2112 34.9323 10.2086 34.9113 10.2058C34.8902 10.2031 34.8861 10.2009 34.8949 10.2037C34.9133 10.2095 35.0001 10.2421 35.0857 10.342L33.5672 11.6436ZM35.0129 12.2112C35.3959 12.2112 35.9703 12.189 36.7219 12.1473L36.611 10.1503C35.865 10.1918 35.3371 10.2112 35.0129 10.2112V12.2112ZM37.6043 11.4959C38.0816 10.2062 38.5241 9.31046 38.9176 8.7552C39.3443 8.15299 39.5411 8.1864 39.4745 8.1864V6.1864C38.5135 6.1864 37.795 6.88021 37.2858 7.5988C36.7433 8.36434 36.229 9.4498 35.7286 10.8017L37.6043 11.4959ZM39.4745 8.1864C39.4666 8.1864 39.286 8.17909 39.127 8.00139C38.987 7.84487 39.0049 7.71001 39.0049 7.7792H41.0049C41.0049 7.45319 40.9344 7.02193 40.6175 6.66781C40.2817 6.29251 39.836 6.1864 39.4745 6.1864V8.1864ZM39.0764 7.40781C38.7311 8.27098 38.3485 9.36743 37.9286 10.6902L39.8348 11.2954C40.2469 9.99737 40.613 8.95142 40.9333 8.15059L39.0764 7.40781ZM38.9921 11.9867C41.0647 11.7564 42.3484 11.6496 42.9065 11.6496V9.6496C42.2165 9.6496 40.8171 9.7716 38.7712 9.99892L38.9921 11.9867ZM42.9065 11.6496C42.8355 11.6496 42.5986 11.6312 42.3866 11.4191C42.1745 11.207 42.1561 10.9701 42.1561 10.8992H44.1561C44.1561 10.6619 44.0961 10.3002 43.8008 10.0049C43.5055 9.70961 43.1438 9.6496 42.9065 9.6496V11.6496ZM42.1561 10.8992C42.1561 10.8743 42.1602 10.8055 42.199 10.7168C42.2404 10.6222 42.3067 10.5388 42.3862 10.4782C42.5273 10.3707 42.6206 10.3984 42.5009 10.3984V12.3984C42.8179 12.3984 43.2388 12.3429 43.5983 12.069C44.0092 11.756 44.1561 11.3037 44.1561 10.8992H42.1561ZM42.5009 10.3984C42.3597 10.3984 42.1602 10.4244 41.985 10.4491C41.7798 10.4781 41.5089 10.5205 41.1755 10.5756C40.5076 10.686 39.5684 10.8509 38.3603 11.0696L38.7166 13.0376C39.9214 12.8195 40.8489 12.6568 41.5018 12.5488C41.8288 12.4947 42.0818 12.4552 42.2641 12.4296C42.4762 12.3997 42.5276 12.3984 42.5009 12.3984V10.3984ZM37.5849 11.7523C35.9291 16.9923 35.0737 21.3168 35.0737 24.6896H37.0737C37.0737 21.6144 37.8614 17.5149 39.492 12.3549L37.5849 11.7523ZM35.0737 24.6896C35.0737 26.3388 35.2344 27.7021 35.6288 28.688C35.8295 29.1896 36.1131 29.6511 36.5216 29.9916C36.9478 30.3468 37.4579 30.5256 38.0081 30.5256V28.5256C37.9134 28.5256 37.8593 28.5029 37.802 28.4551C37.7269 28.3926 37.6075 28.2496 37.4858 27.9452C37.2353 27.3191 37.0737 26.2644 37.0737 24.6896H35.0737ZM38.0081 30.5256C38.8548 30.5256 39.5849 30.1429 40.1816 29.5463L38.7674 28.1321C38.4488 28.4507 38.2013 28.5256 38.0081 28.5256V30.5256ZM40.165 29.5626C40.6896 29.0618 41.1059 28.5174 41.3608 27.9227L39.5225 27.1349C39.403 27.4138 39.1746 27.743 38.784 28.1158L40.165 29.5626ZM41.3815 27.8705C41.3537 27.9469 41.2428 28.1569 40.9695 28.2534C40.7393 28.3346 40.5844 28.2639 40.6131 28.2749L41.3311 26.4083C41.0893 26.3153 40.7109 26.2238 40.3039 26.3674C39.8538 26.5263 39.6128 26.8819 39.5019 27.1871L41.3815 27.8705ZM40.6558 28.2903C40.6495 28.2882 40.4305 28.2228 40.2648 27.9743C40.1692 27.8309 40.1125 27.6557 40.1125 27.4703C40.1125 27.2962 40.1621 27.1622 40.2024 27.0816L41.9913 27.976C42.1275 27.7037 42.1991 27.2701 41.9289 26.8649C41.7216 26.554 41.4195 26.4366 41.2883 26.3929L40.6558 28.2903ZM40.1889 27.1097C40.0738 27.3592 39.9265 27.6543 39.7451 27.9969L41.5127 28.9327C41.7057 28.5681 41.8704 28.2392 42.0048 27.9479L40.1889 27.1097ZM39.7451 27.9969C39.6337 28.2073 39.3627 28.5554 38.8438 29.0544L40.23 30.496C40.7927 29.955 41.2496 29.4295 41.5127 28.9327L39.7451 27.9969ZM38.8438 29.0544C38.425 29.457 38.1093 29.5552 37.8833 29.5552V31.5552C38.7804 31.5552 39.5671 31.1334 40.23 30.496L38.8438 29.0544ZM37.8833 29.5552C37.005 29.5552 36.4068 29.2095 35.9656 28.4422C35.4766 27.5915 35.1705 26.1866 35.1705 24.0968H33.1705C33.1705 26.3126 33.4832 28.1369 34.2317 29.439C35.0282 30.8245 36.2863 31.5552 37.8833 31.5552V29.5552ZM35.1705 24.0968C35.1705 20.5806 35.8236 16.7965 37.1491 12.7385L35.2479 12.1175C33.8694 16.3379 33.1705 20.333 33.1705 24.0968H35.1705ZM36.0571 11.4381C35.8274 11.4709 35.5241 11.4904 35.1377 11.4904V13.4904C35.5833 13.4904 35.9871 13.4683 36.3399 13.4179L36.0571 11.4381ZM51.808 16.9832L52.6566 17.5124L52.6628 17.5022L51.808 16.9832ZM46.2232 19.7288L45.776 20.6232V20.6232L46.2232 19.7288ZM45.7552 19.2608V18.2608H44.1372L44.8608 19.708L45.7552 19.2608ZM49.8112 16.7024L49.0025 16.1142L48.9995 16.1184L49.8112 16.7024ZM46.4416 14.8616L45.5667 14.3774L45.5634 14.3833L46.4416 14.8616ZM46.3168 25.7816L46.6586 24.8417L46.6479 24.838L46.3168 25.7816ZM48.3136 25.6568L48.7017 26.5784L48.7219 26.5699L48.7417 26.5605L48.3136 25.6568ZM49.312 25.0016L48.6338 24.2668L49.312 25.0016ZM50.6536 23.348L51.5163 23.8537L51.5332 23.825L51.5481 23.7952L50.6536 23.348ZM51.652 23.2856L52.6168 23.5487L52.6301 23.4999L52.6384 23.45L51.652 23.2856ZM50.9344 24.44L50.1418 23.8303L50.1343 23.84L50.1271 23.85L50.9344 24.44ZM49.8112 25.7504L50.4952 26.4799L50.4966 26.4786L49.8112 25.7504ZM48.4696 26.5928L48.0635 25.679L48.0427 25.6882L48.0224 25.6984L48.4696 26.5928ZM42.604 23.8784L41.6373 24.1343L41.6403 24.1456L41.6436 24.1569L42.604 23.8784ZM43.2904 17.1392L42.3646 16.7611L42.3595 16.7739L43.2904 17.1392ZM47.5024 11.7416L46.9906 10.8825L46.9842 10.8863L46.9778 10.8903L47.5024 11.7416ZM50.4976 11.868C51.089 11.868 51.3637 12.0337 51.5156 12.2116C51.6933 12.4197 51.8688 12.8381 51.8688 13.6448H53.8688C53.8688 12.6003 53.6492 11.6303 53.0365 10.9128C52.398 10.1651 51.4871 9.868 50.4976 9.868V11.868ZM51.8688 13.6448C51.8688 14.4774 51.5921 15.4121 50.9533 16.4642L52.6628 17.5022C53.4384 16.2247 53.8688 14.9338 53.8688 13.6448H51.8688ZM50.9595 16.454C49.9052 18.1446 48.6008 18.8848 47.0032 18.8848V20.8848C49.3993 20.8848 51.2981 19.6906 52.6566 17.5124L50.9595 16.454ZM47.0032 18.8848C46.7959 18.8848 46.7005 18.8494 46.6705 18.8344L45.776 20.6232C46.162 20.8162 46.5866 20.8848 47.0032 20.8848V18.8848ZM46.6705 18.8344C46.6633 18.8308 46.6596 18.8283 46.6582 18.8273C46.6569 18.8264 46.6569 18.8262 46.6573 18.8267C46.6578 18.8272 46.6577 18.8271 46.6567 18.8258C46.6558 18.8245 46.6532 18.8207 46.6497 18.8136L44.8608 19.708C45.0616 20.1095 45.3745 20.4225 45.776 20.6232L46.6705 18.8344ZM45.7552 20.2608C47.6756 20.2608 49.2926 19.1354 50.623 17.2864L48.9995 16.1184C47.8755 17.6806 46.7885 18.2608 45.7552 18.2608V20.2608ZM50.62 17.2906C51.6855 15.8255 52.3088 14.3625 52.3088 12.9272H50.3088C50.3088 13.7799 49.9338 14.8337 49.0025 16.1142L50.62 17.2906ZM52.3088 12.9272C52.3088 12.3929 52.2056 11.8069 51.8305 11.3408C51.4219 10.8332 50.841 10.648 50.2792 10.648V12.648C50.3491 12.648 50.3643 12.659 50.3471 12.6519C50.3237 12.6422 50.2937 12.6213 50.2724 12.5948C50.2548 12.5729 50.2644 12.5735 50.2786 12.6267C50.2935 12.6819 50.3088 12.7778 50.3088 12.9272H52.3088ZM50.2792 10.648C48.3247 10.648 46.7886 12.1694 45.5667 14.3774L47.3166 15.3458C48.4659 13.269 49.4882 12.648 50.2792 12.648V10.648ZM45.5634 14.3833C44.2214 16.8475 43.5384 19.4028 43.5384 22.0376H45.5384C45.5384 19.7636 46.1243 17.5349 47.3198 15.3399L45.5634 14.3833ZM43.5384 22.0376C43.5384 24.2261 44.1662 26.0868 45.9858 26.7252L46.6479 24.838C46.0963 24.6444 45.5384 24.0091 45.5384 22.0376H43.5384ZM45.9751 26.7214C46.351 26.8581 46.7683 26.9064 47.1904 26.9064V24.9064C46.9054 24.9064 46.7403 24.8715 46.6586 24.8418L45.9751 26.7214ZM47.1904 26.9064C47.7025 26.9064 48.2092 26.7858 48.7017 26.5784L47.9256 24.7352C47.6277 24.8606 47.3856 24.9064 47.1904 24.9064V26.9064ZM48.7417 26.5605C49.2117 26.3379 49.6331 26.0662 49.9903 25.7364L48.6338 24.2668C48.4502 24.4362 48.206 24.6013 47.8856 24.7531L48.7417 26.5605ZM49.9903 25.7364C50.5997 25.1739 51.1103 24.5463 51.5163 23.8537L49.7909 22.8423C49.4898 23.3561 49.106 23.8309 48.6338 24.2668L49.9903 25.7364ZM51.5481 23.7952C51.5021 23.8872 51.4185 23.9819 51.3036 24.0432C51.2004 24.0982 51.1245 24.0984 51.1216 24.0984V22.0984C50.6188 22.0984 50.0541 22.3111 49.7592 22.9008L51.5481 23.7952ZM51.1216 24.0984C51.2852 24.0984 51.2812 24.1161 51.2022 24.0882C51.1607 24.0735 51.0042 24.0141 50.8624 23.8439C50.6875 23.634 50.6251 23.3645 50.6656 23.1212L52.6384 23.45C52.6894 23.1443 52.6127 22.8202 52.3988 22.5635C52.218 22.3465 51.9978 22.2481 51.8679 22.2022C51.612 22.1119 51.3325 22.0984 51.1216 22.0984V24.0984ZM50.6873 23.0225C50.6952 22.9935 50.6826 23.0473 50.5766 23.2179C50.4808 23.3718 50.3386 23.5745 50.1418 23.8303L51.7271 25.0497C51.9463 24.7647 52.1316 24.5046 52.2751 24.2737C52.4083 24.0595 52.5465 23.8065 52.6168 23.5487L50.6873 23.0225ZM50.1271 23.85C49.7556 24.3583 49.4214 24.7441 49.1259 25.0222L50.4966 26.4786C50.9083 26.0911 51.3229 25.6033 51.7418 25.03L50.1271 23.85ZM49.1273 25.0209C48.899 25.2349 48.556 25.4601 48.0635 25.679L48.8758 27.5066C49.5065 27.2263 50.0579 26.8899 50.4952 26.4799L49.1273 25.0209ZM48.0224 25.6984C47.6096 25.9048 47.2107 25.9984 46.816 25.9984V27.9984C47.5446 27.9984 48.2481 27.8216 48.9169 27.4872L48.0224 25.6984ZM46.816 25.9984C45.8713 25.9984 45.1939 25.7772 44.7047 25.4148C44.2172 25.0538 43.82 24.481 43.5645 23.5999L41.6436 24.1569C41.9913 25.3558 42.5977 26.343 43.5142 27.022C44.429 27.6996 45.556 27.9984 46.816 27.9984V25.9984ZM43.5707 23.6225C43.4062 23.0008 43.3232 22.3589 43.3232 21.6944H41.3232C41.3232 22.5275 41.4275 23.3416 41.6373 24.1343L43.5707 23.6225ZM43.3232 21.6944C43.3232 20.4542 43.6105 19.0611 44.2213 17.5045L42.3595 16.7739C41.6808 18.5037 41.3232 20.1474 41.3232 21.6944H43.3232ZM44.2162 17.5172C45.178 15.1618 46.4641 13.5562 48.0271 12.5929L46.9778 10.8903C44.9632 12.1318 43.4412 14.1246 42.3647 16.7612L44.2162 17.5172ZM48.0142 12.6007C48.8555 12.0995 49.679 11.868 50.4976 11.868V9.868C49.2779 9.868 48.1045 10.2189 46.9906 10.8825L48.0142 12.6007ZM63.7703 11.7104L64.6859 12.1124L63.1149 10.9551L63.7703 11.7104ZM59.0279 18.5744L59.9133 19.0392L59.9144 19.037L59.0279 18.5744ZM55.9391 14.5808L56.9097 14.8214L55.9391 14.5808ZM58.8095 11.492L59.7632 11.7925L59.8095 11.6458V11.492H58.8095ZM56.7503 20.8208L55.7587 20.6912L55.611 21.8208H56.7503V20.8208ZM56.9687 20.8208V21.8208H57.6253L57.8863 21.2183L56.9687 20.8208ZM62.5535 11.7104L61.8224 11.0281L62.5535 11.7104ZM66.2351 10.0256L65.5279 10.7327L65.5551 10.7599L65.5843 10.7849L66.2351 10.0256ZM66.4535 10.4936L67.1606 11.2007L67.4535 10.9078V10.4936H66.4535ZM65.9231 11.1488L66.7368 11.73L66.7368 11.73L65.9231 11.1488ZM65.0807 13.2392L66.0312 13.5499L66.0329 13.5446L65.0807 13.2392ZM64.3943 16.0456C64.3907 16.0456 64.4278 16.0488 64.4641 16.0753C64.4898 16.094 64.4622 16.0865 64.4143 15.9819C64.3072 15.748 64.2087 15.2743 64.2087 14.456H62.2087C62.2087 15.3641 62.3077 16.1852 62.5958 16.8145C62.7456 17.1415 62.965 17.4577 63.287 17.6922C63.6197 17.9345 64.0026 18.0456 64.3943 18.0456V16.0456ZM64.2087 14.456C64.2087 13.6098 64.3699 12.8322 64.6859 12.1124L62.8546 11.3084C62.4218 12.2942 62.2087 13.347 62.2087 14.456H64.2087ZM63.1149 10.9551C61.5513 12.3117 59.8997 14.7416 58.1413 18.1118L59.9144 19.037C61.6505 15.7096 63.1604 13.5635 64.4256 12.4657L63.1149 10.9551ZM58.1425 18.1096C57.2613 19.7879 56.589 21.1967 56.1344 22.3277C55.696 23.4186 55.4071 24.375 55.4071 25.0952H57.4071C57.4071 24.7962 57.555 24.1562 57.9901 23.0735C58.4091 22.0309 59.0472 20.6889 59.9133 19.0392L58.1425 18.1096ZM55.4071 25.0952C55.4071 25.0476 55.415 24.9587 55.462 24.8529C55.5116 24.7413 55.5896 24.6455 55.6823 24.576C55.8485 24.4514 55.9781 24.4696 55.9079 24.4696V26.4696C56.1704 26.4696 56.5497 26.4254 56.8823 26.176C57.269 25.886 57.4071 25.464 57.4071 25.0952H55.4071ZM55.9079 24.4696C56.0092 24.4696 56.116 24.5132 56.1843 24.5752C56.231 24.6177 56.2103 24.6239 56.168 24.5088C56.0791 24.2667 56.0031 23.7933 56.0031 23.0048H54.0031C54.0031 23.8595 54.0778 24.6185 54.2905 25.198C54.399 25.4937 54.5668 25.808 54.8398 26.0559C55.1342 26.3233 55.5049 26.4696 55.9079 26.4696V24.4696ZM56.0031 23.0048C56.0031 19.9715 56.3085 17.246 56.9097 14.8214L54.9684 14.3402C54.3216 16.9492 54.0031 19.8397 54.0031 23.0048H56.0031ZM56.9097 14.8214C57.213 13.5981 57.5299 12.7679 57.8327 12.266C58.152 11.7367 58.303 11.8056 58.2167 11.8056V9.8056C57.2359 9.8056 56.5601 10.5037 56.1202 11.2328C55.6638 11.9893 55.2891 13.0467 54.9684 14.3402L56.9097 14.8214ZM58.2167 11.8056C58.2213 11.8056 58.1809 11.8065 58.1159 11.7814C58.0449 11.754 57.9679 11.7043 57.9044 11.6308C57.7831 11.4903 57.8095 11.3843 57.8095 11.492H59.8095C59.8095 11.1421 59.737 10.6929 59.4181 10.3236C59.0749 9.92621 58.6097 9.8056 58.2167 9.8056V11.8056ZM57.8557 11.1915C56.8812 14.2845 56.1822 17.4513 55.7587 20.6912L57.7418 20.9504C58.1503 17.8255 58.8241 14.7731 59.7632 11.7925L57.8557 11.1915ZM56.7503 21.8208H56.9687V19.8208H56.7503V21.8208ZM57.8863 21.2183C59.5431 17.3932 61.3493 14.4661 63.2845 12.3927L61.8224 11.0281C59.6808 13.3227 57.7638 16.4692 56.051 20.4233L57.8863 21.2183ZM63.2845 12.3927C64.3976 11.2001 65.2081 10.8384 65.7359 10.8384V8.8384C64.35 8.8384 63.0389 9.72468 61.8224 11.0281L63.2845 12.3927ZM65.7359 10.8384C65.74 10.8384 65.712 10.8389 65.6655 10.8215C65.616 10.803 65.5672 10.772 65.5279 10.7327L66.9422 9.31849C66.5966 8.97296 66.1581 8.8384 65.7359 8.8384V10.8384ZM65.5843 10.7849C65.5613 10.7652 65.523 10.7241 65.4927 10.6591C65.462 10.5934 65.4535 10.5332 65.4535 10.4936H67.4535C67.4535 10.0064 67.2469 9.5758 66.8858 9.26634L65.5843 10.7849ZM65.7463 9.78649C65.5435 9.9893 65.3297 10.2591 65.1093 10.5676L66.7368 11.73C66.9324 11.4561 67.0722 11.2891 67.1606 11.2007L65.7463 9.78649ZM65.1093 10.5676C64.9322 10.8155 64.774 11.1561 64.6289 11.516C64.476 11.8955 64.3092 12.3704 64.1284 12.9338L66.0329 13.5446C66.2058 13.0056 66.3561 12.5809 66.484 12.2636C66.6197 11.9267 66.7059 11.7733 66.7368 11.73L65.1093 10.5676ZM64.1302 12.9285C63.7397 14.1228 63.5503 15.4147 63.5503 16.796H65.5503C65.5503 15.5981 65.7144 14.5188 66.0312 13.5499L64.1302 12.9285ZM63.5503 16.796C63.5503 16.7886 63.5506 16.7539 63.5615 16.7012C63.5723 16.6497 63.5981 16.5574 63.6633 16.4532C63.7326 16.3422 63.8404 16.2284 63.9919 16.1476C64.1408 16.0682 64.2851 16.0456 64.3943 16.0456V18.0456C64.7661 18.0456 65.1377 17.8677 65.3593 17.5132C65.5319 17.237 65.5503 16.951 65.5503 16.796H63.5503Z" fill="#D11117"/>
<path d="M69.71 26V12.7H74.954C76.4993 12.7 77.728 13.1053 78.64 13.916C79.552 14.7267 80.008 15.816 80.008 17.184C80.008 18.6153 79.5013 19.73 78.488 20.528C77.4873 21.326 76.2207 21.725 74.688 21.725H72.047V26H69.71ZM72.047 19.616H74.764C75.638 19.616 76.3347 19.3943 76.854 18.951C77.3733 18.5077 77.633 17.925 77.633 17.203C77.633 16.443 77.3733 15.8603 76.854 15.455C76.3473 15.037 75.6507 14.828 74.764 14.828H72.047V19.616ZM93.7444 24.214C92.4271 25.5567 90.7614 26.228 88.7474 26.228C86.7334 26.228 85.0741 25.563 83.7694 24.233C82.4647 22.903 81.8124 21.2753 81.8124 19.35C81.8124 17.45 82.4711 15.8287 83.7884 14.486C85.1057 13.1433 86.7714 12.472 88.7854 12.472C90.7994 12.472 92.4587 13.137 93.7634 14.467C95.0681 15.797 95.7204 17.4247 95.7204 19.35C95.7204 21.25 95.0617 22.8713 93.7444 24.214ZM85.5364 22.713C86.3977 23.625 87.4807 24.081 88.7854 24.081C90.0901 24.081 91.1604 23.625 91.9964 22.713C92.8451 21.801 93.2694 20.68 93.2694 19.35C93.2694 18.0327 92.8387 16.918 91.9774 16.006C91.1287 15.0813 90.0521 14.619 88.7474 14.619C87.4427 14.619 86.3661 15.075 85.5174 15.987C84.6814 16.899 84.2634 18.02 84.2634 19.35C84.2634 20.6673 84.6877 21.7883 85.5364 22.713ZM98.544 26V12.7H104.472C106.017 12.7 107.227 13.0863 108.101 13.859C108.975 14.619 109.412 15.645 109.412 16.937C109.412 17.9883 109.127 18.856 108.557 19.54C107.987 20.2113 107.214 20.6863 106.239 20.965L109.83 26H107.075L103.769 21.364H100.881V26H98.544ZM100.881 19.293H104.301C105.137 19.293 105.802 19.0903 106.296 18.685C106.79 18.2797 107.037 17.7287 107.037 17.032C107.037 16.3227 106.796 15.778 106.315 15.398C105.834 15.018 105.156 14.828 104.282 14.828H100.881V19.293ZM112.274 26V12.7H114.44L121.565 21.896V12.7H123.864V26H121.907L114.573 16.538V26H112.274Z" fill="white"/>
</svg>
