<svg viewBox="0 0 421 450" width="421" height="450" xmlns="http://www.w3.org/2000/svg">
 <g>
  <path fill="#fff" d="m265.159,311.720001c-1.623,-17.853 -1.007,-30.316 -1.007,-46.632c8.082,-4.241 22.58,-31.3 25.025,-54.156c6.361,-0.524 16.392,-6.724 19.323,-31.224c1.58,-13.151 -4.706,-20.551 -8.536,-22.877c10.343,-31.122 31.841,-127.397 -39.761,-137.346c-7.357,-12.939 -26.227,-19.485 -50.743,-19.485c-98.093,1.807 -109.929,74.074 -88.426,156.831c-3.819,2.326 -10.11,9.727 -8.542,22.877c2.948,24.5 12.967,30.7 19.323,31.224c2.439,22.845 17.505,49.915 25.615,54.156c0,16.315 0.611,28.779 -1.006,46.632c-19.408,52.191 -150.376,37.543 -156.424,138.183l421,0c-6.037,-100.64 -136.431,-85.992 -155.841,-138.183z"/>
 </g>
</svg>
